<svg xmlns="http://www.w3.org/2000/svg" height="1200" width="1600" version="1.1" xmlns:xlink="http://www.w3.org/1999/xlink" xmlns:svgjs="http://svgjs.com/svgjs"><rect fill="#f3ebe9" width="1600" height="1200"></rect><g><path d="M975.8 1011.3V653.4C975.8 631.1 993.9 612.9 1016.3 612.9H1285.8C1308.1 612.9 1326.3 631 1326.3 653.4V1011.3C1326.3 1033.6 1308.2 1051.8 1285.8 1051.8H1016.3C993.9 1051.7 975.8 1033.6 975.8 1011.3Z" fill="#ffc930" opacity="1" stroke-width="4" stroke="none"></path></g><g><path d="M1225.3 452.7V610.9" stroke="#3c2c5b" stroke-width="4" stroke-linecap="round" stroke-linejoin="round" opacity="1" fill="none"></path><path d="M1225.8 593.4C1232.48 593.4 1237.9 587.98 1237.9 581.3 1237.9 574.62 1232.48 569.2 1225.8 569.2 1219.12 569.2 1213.7 574.62 1213.7 581.3 1213.7 587.98 1219.12 593.4 1225.8 593.4Z" fill="#ffc930" opacity="1" stroke-width="4" stroke="none"></path></g><g><path d="M708.9 872.9H1002" stroke="#3c2c5b" stroke-width="4" stroke-linecap="round" stroke-linejoin="round" opacity="1" fill="none"></path><path d="M977.3 909.8C997.96 909.8 1014.7 893.05 1014.7 872.4 1014.7 851.75 997.96 835 977.3 835 956.65 835 939.9 851.75 939.9 872.4 939.9 893.05 956.65 909.8 977.3 909.8Z" fill="#3c2c5b" opacity="1" stroke-width="4" stroke="none"></path></g><g><path d="M792.1 872.9V951.1C792.1 966.8 804.8 979.5 820.5 979.5H975" stroke="#3c2c5b" stroke-width="4" stroke-linecap="round" stroke-linejoin="round" opacity="1" fill="none"></path><path d="M792.6 884.5C799.28 884.5 804.7 879.08 804.7 872.4 804.7 865.72 799.28 860.3 792.6 860.3 785.92 860.3 780.5 865.72 780.5 872.4 780.5 879.08 785.92 884.5 792.6 884.5Z" fill="#ffc930" opacity="1" stroke-width="4" stroke="none"></path></g><g><path d="M1185 434.2V533.7C1185 549.4 1172.3 562.1 1156.6 562.1H1002" stroke="#3c2c5b" stroke-width="4" stroke-linecap="round" stroke-linejoin="round" opacity="1" fill="none"></path></g><g><path d="M619.1 877.8V977.3C619.1 993 606.4 1005.7 590.7 1005.7H436.1" stroke="#3c2c5b" stroke-width="4" stroke-linecap="round" stroke-linejoin="round" opacity="1" fill="none"></path></g><g><path d="M355.5 632.2V731.7C355.5 747.4 368.2 760.1 383.9 760.1H538.4" stroke="#3c2c5b" stroke-width="4" stroke-linecap="round" stroke-linejoin="round" opacity="1" fill="none"></path></g><g><path d="M452.4 632.2H666.1C688.4 632.2 706.6 650.3 706.6 672.7V886.4C706.6 908.7 688.5 926.9 666.1 926.9H452.4C430.1 926.9 411.9 908.8 411.9 886.4V672.6C411.9 650.3 430 632.2 452.4 632.2Z" fill="#ffc930" opacity="1" stroke-width="4" stroke="none"></path></g><g><path d="M1219.5 761.7C1219.5 723.9 1188.9 693.3 1151.1 693.3 1113.3 693.3 1082.7 723.9 1082.7 761.7 1082.7 788.5 1098.3 812.8 1122.6 823.9V950.1L1150.1 978.1 1179.6 950.1V929.5L1161.4 911.1 1179.6 893.7V883L1161.4 864.6 1179.6 847.2V823.9C1203.9 812.8 1219.5 788.5 1219.5 761.7ZM1151.4 723.1C1163 723.1 1172.5 732.5 1172.5 744.2 1172.5 755.9 1163.1 765.3 1151.4 765.3 1139.7 765.3 1130.3 755.9 1130.3 744.2 1130.3 732.5 1139.8 723.1 1151.4 723.1Z" fill="#ffffff" opacity="1" stroke-width="4" stroke="none"></path></g><g><path d="M605.52 828.97L624.63 719.02 514.68 738.14 540.22 763.68 493.88 809.86 533.8 849.78 579.97 803.6 605.52 828.97Z" fill="#ffffff" opacity="1" stroke-width="4" stroke="none"></path></g><g><path d="M1293.7 685.2H1401.5C1423.8 685.2 1423.1 703.6 1423.1 726L1442 810.6V833.5C1442 855.8 1423.9 874 1401.5 874H1293.7C1271.4 874 1253.2 855.9 1253.2 833.5V810.6L1263.6 723.1C1263.7 700.8 1271.4 685.2 1293.7 685.2Z" fill="#3c2c5b" opacity="1" stroke-width="4" stroke="none"></path><path d="M1293.7 662.3H1401.5C1423.8 662.3 1442 680.4 1442 702.8V810.6C1442 832.9 1423.9 851.1 1401.5 851.1H1293.7C1271.4 851.1 1253.2 833 1253.2 810.6V702.7C1253.3 680.4 1271.4 662.3 1293.7 662.3Z" fill="#ffa0dc" opacity="1" stroke-width="4" stroke="none"></path></g><g><path d="M581.7 498.2H696.3" stroke="#3c2c5b" stroke-width="4" stroke-linecap="round" stroke-linejoin="round" opacity="1" fill="none"></path></g><g><path d="M1385.3 747.81H1359.9C1357.4 747.81 1355.4 745.81 1355.4 743.31 1355.4 742.81 1355.5 742.21 1355.7 741.71L1367.9 708.71C1368.8 706.41 1367.6 703.81 1365.2 702.91 1363.5 702.31 1361.7 702.71 1360.4 703.91L1306.8 757.51C1305 759.31 1305 762.11 1306.8 763.91 1307.6 764.71 1308.8 765.21 1310 765.21H1335.4C1337.9 765.21 1339.9 767.21 1339.9 769.71 1339.9 770.21 1339.8 770.81 1339.6 771.31L1327.4 804.31C1326.5 806.61 1327.7 809.21 1330.1 810.11 1331.8 810.71 1333.6 810.31 1334.9 809.11L1388.5 755.51C1390.3 753.71 1390.3 750.91 1388.5 749.11 1387.6 748.31 1386.5 747.81 1385.3 747.81Z" fill="#ffffff" opacity="1" stroke-width="4" stroke="none"></path></g><g><path d="M706.68 226.48L764.98 226.48C771.08 226.48 775.99 231.39 775.99 237.49L775.99 410.33C775.99 416.43 771.08 421.34 764.98 421.34L673.23 421.34" stroke="#3c2c5b" stroke-width="4" stroke-linecap="round" stroke-linejoin="round" opacity="1" fill="none"></path><path d="M698.53 226.26C698.53 235.32 705.87 242.66 714.92 242.66 723.98 242.66 731.32 235.32 731.32 226.26 731.32 217.21 723.98 209.87 714.92 209.87 705.87 209.87 698.53 217.21 698.53 226.26Z" fill="#3c2c5b" opacity="1" stroke-width="4" stroke="none"></path><path d="M770.46 373.07C770.46 376 772.84 378.38 775.77 378.38 778.7 378.38 781.07 376 781.07 373.07 781.07 370.14 778.7 367.77 775.77 367.77 772.84 367.77 770.46 370.14 770.46 373.07Z" fill="#3c2c5b" opacity="1" stroke-width="4" stroke="none"></path></g><g><path d="M291.8 927.9H244.6C232.8 927.9 223.2 918.3 223.2 906.5V827.8L239.6 817.6 206.8 797.2 239.6 776.8 206.8 756.4 223.2 746.2V671" stroke="#3c2c5b" stroke-width="4" stroke-linecap="round" stroke-linejoin="round" opacity="1" fill="none"></path><path d="M270.9 939.9C277.58 939.9 283 934.48 283 927.8 283 921.12 277.58 915.7 270.9 915.7 264.22 915.7 258.8 921.12 258.8 927.8 258.8 934.48 264.22 939.9 270.9 939.9Z" fill="#3c2c5b" opacity="1" stroke-width="4" stroke="none"></path></g><g><path d="M707 424.4H1005.6C1027.9 424.4 1016.1 443.7 1016.1 466.1L1046.1 739.2V763.5C1046.1 785.8 1028 804 1005.6 804H707C684.7 804 666.5 785.9 666.5 763.5V743.1L683.8 465.4C683.8 443 684.6 424.4 707 424.4Z" fill="#3c2c5b" opacity="1" stroke-width="4" stroke="none"></path><path d="M707 400.1H1005.6C1027.9 400.1 1046.1 418.2 1046.1 440.6V739.2C1046.1 761.5 1028 779.7 1005.6 779.7H707C684.7 779.7 666.5 761.6 666.5 739.2V440.5C666.5 418.2 684.6 400.1 707 400.1Z" fill="#ffffff" opacity="1" stroke-width="4" stroke="none"></path></g><g><path d="M292.97 666.13C276.14 590.65 290.83 499.83 321.55 496.18 350.7 492.67 360.37 565.8 351.56 584.85 344.9 599.24 332.15 584.56 344.97 554.05 356.72 526.19 391.09 469.11 423.32 470.54 455.55 471.97 427.69 529.91 427.69 529.91L554.46 483" stroke="#3c2c5b" stroke-width="4" stroke-linecap="round" stroke-linejoin="round" opacity="1" fill="none"></path></g><g><path d="M1112.7 294H990.3L976.3 271.6 948.5 316.5 920.6 271.6 892.7 316.5 878.7 294H775.8" stroke="#3c2c5b" stroke-width="4" stroke-linecap="round" stroke-linejoin="round" opacity="1" fill="none"></path></g><g><path d="M1190.11 479.43C1211.84 479.43 1229.47 461.8 1229.47 440.08 1229.47 418.35 1211.84 400.72 1190.11 400.72 1168.39 400.72 1150.76 418.35 1150.76 440.08 1150.76 461.8 1168.39 479.43 1190.11 479.43Z" fill="#ff4f32" opacity="1" stroke-width="4" stroke="none"></path></g><g><path d="M206.7 357.5H564.6C586.9 357.5 539.6 378.7 539.6 401.1L605.1 643.2V667.5C605.1 689.8 587 708 564.6 708H206.7C184.4 708 166.2 689.9 166.2 667.5V647.6L199.7 401.1C199.7 378.8 184.4 357.5 206.7 357.5Z" fill="#3c2c5b" opacity="1" stroke-width="4" stroke="none"></path><path d="M206.7 333.2H564.6C586.9 333.2 605.1 351.3 605.1 373.7V643.2C605.1 665.5 587 683.7 564.6 683.7H206.7C184.4 683.7 166.2 665.6 166.2 643.2V373.7C166.2 351.3 184.4 333.2 206.7 333.2Z" fill="#ff4f32" opacity="1" stroke-width="4" stroke="none"></path></g><g><path d="M1139.6 218.7H1371.3C1393.6 218.7 1382.1 235.8 1382.1 258.2L1411.8 466.6V490.9C1411.8 513.2 1393.7 531.4 1371.3 531.4H1139.6C1117.3 531.4 1099.1 513.3 1099.1 490.9V466.6L1142.5 271.7C1142.5 249.3 1117.2 218.7 1139.6 218.7Z" fill="#3c2c5b" opacity="1" stroke-width="4" stroke="none"></path><path d="M1139.1 194.4H1370.8C1393.1 194.4 1411.3 212.5 1411.3 234.9V466.6C1411.3 488.9 1393.2 507.1 1370.8 507.1H1139.1C1116.8 507.1 1098.6 489 1098.6 466.6V234.8C1098.7 212.5 1116.8 194.4 1139.1 194.4Z" fill="#ff4f32" opacity="1" stroke-width="4" stroke="none"></path></g><g><path d="M282.1 413.94L236.16 532.94 353.59 646.59 512.75 549.66 500.45 484.38 436.22 426.13 282.1 413.94Z" stroke="#3c2c5b" stroke-width="4" opacity="1" fill="none"></path><path d="M286.31 418.46L341.29 501.72 353.59 641.22" stroke="#3c2c5b" stroke-width="4" opacity="1" fill="none"></path><path d="M236.16 532.94L341.29 501.72 493.2 484.38" stroke="#3c2c5b" stroke-width="4" opacity="1" fill="none"></path><path d="M431.17 428.97L343.6 497.2" stroke="#3c2c5b" stroke-width="4" opacity="1" fill="none"></path><path d="M348.33 505.93L507.5 546.61" stroke="#3c2c5b" stroke-width="4" stroke-linecap="round" stroke-linejoin="round" opacity="1" fill="none"></path><path d="M236.16 545.56C242.9 545.56 248.36 540.1 248.36 533.36 248.36 526.63 242.9 521.17 236.16 521.17 229.42 521.17 223.97 526.63 223.97 533.36 223.97 540.1 229.42 545.56 236.16 545.56Z" fill="#ffffff" opacity="1" stroke-width="4" stroke="none"></path><path d="M341.29 513.92C348.03 513.92 353.48 508.46 353.48 501.72 353.48 494.98 348.03 489.53 341.29 489.53 334.55 489.53 329.09 494.98 329.09 501.72 329.09 508.46 334.55 513.92 341.29 513.92Z" fill="#ffffff" opacity="1" stroke-width="4" stroke="none"></path><path d="M517.44 560.93C523.66 558.35 526.62 551.22 524.04 544.99 521.46 538.78 514.33 535.81 508.11 538.4 501.88 540.98 498.93 548.1 501.5 554.33 504.08 560.55 511.22 563.5 517.44 560.93Z" fill="#ffffff" opacity="1" stroke-width="4" stroke="none"></path><path d="M353.59 658.78C360.33 658.78 365.78 653.33 365.78 646.59 365.78 639.85 360.33 634.39 353.59 634.39 346.85 634.39 341.39 639.85 341.39 646.59 341.39 653.33 346.85 658.78 353.59 658.78Z" fill="#ffffff" opacity="1" stroke-width="4" stroke="none"></path><path d="M500.45 496.57C507.19 496.57 512.65 491.11 512.65 484.38 512.65 477.64 507.19 472.18 500.45 472.18 493.71 472.18 488.26 477.64 488.26 484.38 488.26 491.11 493.71 496.57 500.45 496.57Z" fill="#ffffff" opacity="1" stroke-width="4" stroke="none"></path><path d="M282.1 426.13C288.84 426.13 294.3 420.68 294.3 413.94 294.3 407.2 288.84 401.75 282.1 401.75 275.36 401.75 269.91 407.2 269.91 413.94 269.91 420.68 275.36 426.13 282.1 426.13Z" fill="#ffffff" opacity="1" stroke-width="4" stroke="none"></path><path d="M436.22 438.33C442.96 438.33 448.41 432.87 448.41 426.13 448.41 419.4 442.96 413.94 436.22 413.94 429.48 413.94 424.02 419.4 424.02 426.13 424.02 432.87 429.48 438.33 436.22 438.33Z" fill="#ffffff" opacity="1" stroke-width="4" stroke="none"></path></g><g><path d="M1253.2 249.3C1213.5 250.3 1182.2 283.2 1183.1 322.8 1183.6 344.4 1193.9 364.7 1211 377.9 1222.1 386.4 1228.6 399.5 1228.7 413.4L1232.5 421.4H1274.9L1281.2 413.4C1281.2 399.6 1287.6 386.5 1298.6 378.1 1330.1 354 1336.2 309 1312.1 277.4 1298.1 259.2 1276.2 248.7 1253.2 249.3Z" fill="#ffffff" opacity="1" stroke-width="4" stroke="none"></path><path d="M1228.7 413.5V431.8C1228.7 446.3 1240.4 458 1254.9 458 1269.4 458 1281.1 446.3 1281.1 431.8V413.5H1228.7Z" fill="#61ccff" opacity="1" stroke-width="4" stroke="none"></path><path d="M1228.7 413.4H1281.2" stroke="#2a4552" stroke-width="4" stroke-linecap="round" stroke-linejoin="round" opacity="1" fill="none"></path><path d="M1228.7 427.9H1281.1" stroke="#2a4552" stroke-width="4" stroke-linecap="round" stroke-linejoin="round" opacity="1" fill="none"></path><path d="M1246.1 413.4V392.5C1246.1 378.5 1240.6 365 1230.7 355.1 1223.2 347.6 1219.1 337.5 1219.1 326.9 1219.1 319.4 1225.2 313.4 1232.6 313.4 1240.1 313.4 1246.1 319.5 1246.1 326.9V334.7C1246.1 339.5 1250 343.4 1254.8 343.4 1259.6 343.4 1263.5 339.5 1263.5 334.7V326.9C1263.5 319.4 1269.6 313.4 1277 313.4H1277.2C1284.7 313.4 1290.7 319.5 1290.7 326.9 1290.7 337.5 1286.5 347.7 1279 355.2 1269.1 365.2 1263.5 378.6 1263.5 392.7L1263.6 413.5" stroke="#353535" stroke-width="4" stroke-linecap="round" stroke-linejoin="round" opacity="1" fill="none"></path></g><g><path d="M315.25 295.32V194.08C315.25 183.5 323.78 174.98 334.36 174.98H634.5C645.08 174.98 653.6 183.5 653.6 194.08V353.4" stroke="#3c2c5b" stroke-width="4" stroke-linecap="round" stroke-linejoin="round" opacity="1" fill="none"></path><path d="M314.87 309.48C330.6 309.48 343.34 296.74 343.34 281.01 343.34 265.29 330.6 252.54 314.87 252.54 299.15 252.54 286.4 265.29 286.4 281.01 286.4 296.74 299.15 309.48 314.87 309.48Z" fill="#3c2c5b" opacity="1" stroke-width="4" stroke="none"></path><path d="M569.8 184.57C574.88 184.57 579.01 180.44 579.01 175.36 579.01 170.27 574.88 166.15 569.8 166.15 564.71 166.15 560.59 170.27 560.59 175.36 560.59 180.44 564.71 184.57 569.8 184.57Z" fill="#3c2c5b" opacity="1" stroke-width="4" stroke="none"></path></g><g><path d="M887.69 659.67L917.93 629.44 971.47 682.98C979.84 691.34 979.84 704.86 971.47 713.22 963.11 721.58 949.6 721.58 941.24 713.22L887.69 659.67Z" fill="#61ccff" stroke-linejoin="round" opacity="1" stroke-width="4" stroke="none"></path><path d="M971.47 696.69C963.11 705.05 949.6 705.05 941.24 696.69L895.99 651.45 887.69 659.7 941.24 713.24C949.6 721.6 963.11 721.6 971.47 713.24 977.83 706.89 979.32 697.61 976.06 689.82 975.02 692.34 973.48 694.63 971.47 696.69Z" fill="#121212" opacity="0.2" stroke-width="4" stroke="none"></path><path d="M886.05 614.13L872.32 627.85 895.93 651.46 909.65 637.73 886.05 614.13Z" fill="#61ccff" opacity="1" stroke-width="4" stroke="none"></path><path d="M897.6 647.14C888.78 639.23 885.8 627.32 889.35 617.41L886.03 614.09 872.29 627.84 895.88 651.43 898.97 648.34C898.57 647.94 898.06 647.54 897.6 647.14Z" fill="#121212" opacity="0.2" stroke-width="4" stroke="none"></path><path d="M879.21 491.93C913.23 524.81 916.55 578.18 886.89 615 885.23 617.07 883.45 619.07 881.56 621.02 878.99 623.71 876.18 626.29 873.26 628.63 834.09 660.36 776.59 654.23 744.86 615.06 713.14 575.89 719.26 518.39 758.44 486.67 794.29 457.69 846.06 459.98 879.21 491.93Z" fill="#61ccff" opacity="1" stroke-width="4" stroke="none"></path><path d="M815.82 621.76C851.21 621.76 879.9 593.07 879.9 557.68 879.9 522.29 851.21 493.59 815.82 493.59 780.43 493.59 751.74 522.29 751.74 557.68 751.74 593.07 780.43 621.76 815.82 621.76Z" fill="#ffffff" opacity="1" stroke-width="4" stroke="none"></path><path d="M917.89 629.38C926.02 637.91 925.68 651.43 917.14 659.56 908.9 667.4 895.9 667.46 887.65 659.62L917.89 629.38Z" fill="#ffc930" stroke-linejoin="round" opacity="1" stroke-width="4" stroke="none"></path><path d="M846.57 567.59C851.95 567.59 856.31 563.23 856.31 557.85 856.31 552.47 851.95 548.11 846.57 548.11 841.19 548.11 836.84 552.47 836.84 557.85 836.84 563.23 841.19 567.59 846.57 567.59Z" fill="#ffc930" opacity="1" stroke-width="4" stroke="none"></path><path d="M816.16 567.59C821.54 567.59 825.9 563.23 825.9 557.85 825.9 552.47 821.54 548.11 816.16 548.11 810.78 548.11 806.43 552.47 806.43 557.85 806.43 563.23 810.78 567.59 816.16 567.59Z" fill="#ffc930" opacity="1" stroke-width="4" stroke="none"></path><path d="M794.38 562.36C796.87 557.6 795.03 551.72 790.27 549.23 785.51 546.73 779.62 548.57 777.13 553.33 774.63 558.09 776.47 563.98 781.23 566.47 785.99 568.97 791.88 567.13 794.38 562.36Z" fill="#ffc930" opacity="1" stroke-width="4" stroke="none"></path><path d="M918.67 689.74L948.28 660.07" stroke="#121212" stroke-width="4" stroke-linecap="round" stroke-linejoin="round" opacity="1" fill="none"></path><path d="M928.01 699.07L957.67 669.41" stroke="#121212" stroke-width="4" stroke-linecap="round" stroke-linejoin="round" opacity="1" fill="none"></path><path d="M937.34 708.41L967.01 678.74" stroke="#121212" stroke-width="4" stroke-linecap="round" stroke-linejoin="round" opacity="1" fill="none"></path><path d="M887 615.06C885.34 617.12 883.57 619.13 881.68 621.07 879.04 623.77 876.29 626.34 873.37 628.69" stroke="#121212" stroke-width="4" stroke-linecap="round" stroke-linejoin="round" opacity="1" fill="none"></path></g><g><path d="M453.3 137.9H625.8C648.1 137.9 622 162.9 622 185.3L666 325.4C666 347.7 657.5 391.3 635.1 391.3H436.4C414.1 391.3 412.8 353.1 412.8 330.7L438.7 183.1C438.7 161 430.9 137.9 453.3 137.9Z" fill="#3c2c5b" opacity="1" stroke-width="4" stroke="none"></path><path d="M453.3 113.6H625.8C648.1 113.6 666.3 131.7 666.3 154.1V326.6C666.3 348.9 648.2 367.1 625.8 367.1H453.3C431 367.1 412.8 349 412.8 326.6V154.1C412.8 131.7 430.9 113.6 453.3 113.6Z" fill="#ffa0dc" opacity="1" stroke-width="4" stroke="none"></path></g><g><path d="M491.16 216.67C499.28 216.67 505.87 210.08 505.87 201.96 505.87 193.84 499.28 187.25 491.16 187.25 483.04 187.25 476.45 193.84 476.45 201.96 476.45 210.08 483.04 216.67 491.16 216.67Z" stroke="#ffffff" stroke-width="4" stroke-linecap="round" stroke-linejoin="round" opacity="1" fill="none"></path><path d="M580.2 305.71C588.32 305.71 594.91 299.12 594.91 291 594.91 282.88 588.32 276.28 580.2 276.28 572.08 276.28 565.48 282.88 565.48 291 565.48 299.12 572.08 305.71 580.2 305.71Z" stroke="#ffffff" stroke-width="4" stroke-linecap="round" stroke-linejoin="round" opacity="1" fill="none"></path><path d="M594.91 187.25L476.45 305.71" stroke="#ffffff" stroke-width="4" stroke-linecap="round" stroke-linejoin="round" opacity="1" fill="none"></path></g><g><path d="M334.8 835.4H507.3C529.6 835.4 533.2 848.7 533.2 871.1L547.8 1024.2V1048.4C547.8 1070.7 529.7 1088.9 507.3 1088.9H334.8C312.5 1088.9 294.3 1070.8 294.3 1048.4V1024.2L319.1 876.6C319.1 854.2 312.4 835.4 334.8 835.4Z" fill="#3c2c5b" opacity="1" stroke-width="4" stroke="none"></path><path d="M334.8 811.2H507.3C529.6 811.2 547.8 829.3 547.8 851.7V1024.2C547.8 1046.5 529.7 1064.7 507.3 1064.7H334.8C312.5 1064.7 294.3 1046.6 294.3 1024.2V851.6C294.3 829.3 312.4 811.2 334.8 811.2Z" fill="#ffa0dc" opacity="1" stroke-width="4" stroke="none"></path></g><g><path d="M420.82 893.33C354.58 893.33 320.44 939.62 320.44 939.62 320.44 939.62 354.58 985.9 420.82 985.9 487.07 985.9 521.21 939.62 521.21 939.62 521.21 939.62 487.07 893.33 420.82 893.33Z" fill="#ffffff" opacity="1" stroke-width="4" stroke="none"></path><path d="M446.46 958.84C457.06 944.69 454.2 924.62 440.05 914.01 425.9 903.39 405.83 906.26 395.22 920.41 384.61 934.56 387.48 954.63 401.63 965.24 415.77 975.85 435.84 972.98 446.46 958.84Z" fill="#ffffff" opacity="1" stroke-width="4" stroke="none"></path><path d="M420.82 948.88C425.94 948.88 430.08 944.73 430.08 939.62 430.08 934.5 425.94 930.36 420.82 930.36 415.71 930.36 411.57 934.5 411.57 939.62 411.57 944.73 415.71 948.88 420.82 948.88Z" fill="#231f20" opacity="1" stroke-width="4" stroke="none"></path></g></svg>