<svg xmlns="http://www.w3.org/2000/svg" height="1200" width="1600" version="1.1" xmlns:xlink="http://www.w3.org/1999/xlink" xmlns:svgjs="http://svgjs.com/svgjs"><rect fill="#f3ebe9" width="1600" height="1200"></rect><g><path d="M855.46 502.67L855.41 282.7V282.65L937.03 193.47C937.03 193.47 937.09 193.41 937.14 193.41L1110.47 193.36C1110.52 193.36 1110.58 193.41 1110.58 193.47L1110.63 502.67C1110.63 502.72 1110.58 502.78 1110.52 502.78H855.57C855.52 502.78 855.46 502.72 855.46 502.67Z" fill="#ffffff" opacity="1" stroke-width="4" stroke="none"></path><path d="M906.92 304C901.67 292.56 891.54 278.92 872.76 278.92 865.76 278.92 859.79 280.89 857.11 281.93 856.72 282.1 856.39 281.61 856.67 281.33L936.82 193.74H936.87L907.03 304.11 906.92 304Z" fill="#e3e3e3" opacity="1" stroke-width="4" stroke="none"></path><path d="M919.46 353.82C914.86 349.87 911.8 342.48 911.63 335.09 911.47 329.18 913 320.53 921.1 312.7 924.83 309.14 928 306.41 930.79 304.05 937.96 297.98 942.24 294.31 944.64 284.78L958.38 289.71V346.15L919.46 353.82Z" fill="#996b4d" opacity="1" stroke-width="4" stroke="none"></path><path d="M951.49 297.42C946.56 308.92 930.68 314.94 929.04 330.27 928.33 337.17 929.86 344.07 933.42 349.98" stroke="#191919" stroke-width="4" stroke-linecap="round" stroke-linejoin="round" opacity="1" fill="none"></path><path d="M954.77 306.18C951.49 313.85 942.18 325.89 947.11 336.29" stroke="#191919" stroke-width="4" stroke-linecap="round" stroke-linejoin="round" opacity="1" fill="none"></path><path d="M1008.7 346.21V289.76L1022.38 284.78C1024.79 294.31 1029.12 297.98 1036.29 304.05 1039.08 306.41 1042.25 309.14 1045.98 312.7 1054.08 320.53 1055.61 329.18 1055.45 335.09 1055.23 342.48 1052.16 349.82 1047.62 353.82L1008.7 346.21Z" fill="#996b4d" opacity="1" stroke-width="4" stroke="none"></path><path d="M1015.37 297.42C1020.3 308.92 1036.18 314.94 1037.82 330.27 1038.53 337.17 1037 344.07 1033.44 349.98" stroke="#191919" stroke-width="4" stroke-linecap="round" stroke-linejoin="round" opacity="1" fill="none"></path><path d="M1012.09 306.18C1015.37 313.85 1024.68 325.89 1019.75 336.29" stroke="#191919" stroke-width="4" stroke-linecap="round" stroke-linejoin="round" opacity="1" fill="none"></path><path d="M938.62 335.42C945.08 333.18 952.14 332.08 959.53 332.03H1007.49C1014.99 332.14 1022.05 333.34 1028.46 335.48L983.57 381.46 938.62 335.42Z" fill="#ffffff" opacity="1" stroke-width="4" stroke="none"></path><path d="M1083.04 408.67H883.99C883.99 408.51 889.13 387.15 903.42 363.07 913.27 346.37 928.06 338.81 938.73 335.37L983.51 376.81 1028.24 335.37C1038.97 338.87 1053.81 346.48 1063.6 363.01 1076.09 384.14 1081.62 403.03 1083.04 408.34 1082.98 408.34 1083.04 408.61 1083.04 408.67Z" fill="#ff4f32" opacity="1" stroke-width="4" stroke="none"></path><path d="M1015.21 295.24L1017.95 266.22C1020.14 264.69 1022.71 263.87 1025.45 263.87 1030.59 263.87 1036.07 266.93 1036.62 272.79 1038.26 290.69 1015.48 295.24 1015.21 295.24Z" fill="#cea482" opacity="1" stroke-width="4" stroke="none"></path><path d="M951.82 295.29C951.6 295.24 928.82 290.69 930.46 272.79 931.01 266.93 936.49 263.87 941.63 263.87 944.37 263.87 946.94 264.69 949.13 266.17L951.82 295.29Z" fill="#cea482" opacity="1" stroke-width="4" stroke="none"></path><path d="M956.96 332.14V302.35L1010.12 302.3 1010.17 332.14 983.57 356.77 956.96 332.14Z" fill="#cea482" opacity="1" stroke-width="4" stroke="none"></path><path d="M995.61 327.54C981.76 327.54 969.06 320.58 961.56 308.98L956.91 301.81 1010.12 301.59 1010.17 324.8 1009.74 325.02C1005.25 326.66 1000.48 327.54 995.61 327.54Z" fill="#191919" opacity="0.3" stroke-width="4" stroke="none"></path><path d="M983.51 325.4C970.15 325.4 956.52 315.77 951.71 302.96 946.89 290.04 944.75 263.92 949.35 250.95 953.68 238.58 966.49 233.6 983.57 233.6 1000.65 233.6 1013.29 238.63 1017.67 250.95 1022.27 263.98 1020.14 290.04 1015.32 302.96 1010.56 315.71 996.87 325.4 983.51 325.4Z" fill="#cea482" opacity="1" stroke-width="4" stroke="none"></path><path d="M946.94 275.97C946.45 265.51 947.22 256.53 949.24 250.79 953.57 238.41 966.38 231.02 983.51 231.02 1000.54 231.02 1013.35 238.41 1017.78 250.79 1019.81 256.81 1020.58 265.57 1020.08 275.75V275.97C1011.43 274.82 1003.28 270.44 996.43 263.21 991.18 257.68 986.8 250.51 984.06 242.96 983.9 242.46 983.13 242.46 982.97 242.96 980.23 250.51 975.9 257.68 970.59 263.21 963.8 270.38 955.59 274.76 946.94 275.97Z" fill="#996b4d" opacity="1" stroke-width="4" stroke="none"></path><path d="M957.24 312.32C963.97 320.69 974.04 325.4 983.51 325.4 992.87 325.4 1002.89 320.75 1009.63 312.54" stroke="#191919" stroke-width="4" stroke-linecap="round" stroke-linejoin="round" opacity="1" fill="none"></path><path d="M1020.19 281L1027.31 277.17" stroke="#191919" stroke-width="4" stroke-linecap="round" stroke-linejoin="round" opacity="1" fill="none"></path><path d="M946.83 281L939.72 277.17" stroke="#191919" stroke-width="4" stroke-linecap="round" stroke-linejoin="round" opacity="1" fill="none"></path><path d="M968.73 278.81C970.09 278.81 971.2 277.71 971.2 276.35 971.2 274.99 970.09 273.88 968.73 273.88 967.37 273.88 966.27 274.99 966.27 276.35 966.27 277.71 967.37 278.81 968.73 278.81Z" fill="#191919" opacity="1" stroke-width="4" stroke="none"></path><path d="M998.29 278.81C999.66 278.81 1000.76 277.71 1000.76 276.35 1000.76 274.99 999.66 273.88 998.29 273.88 996.94 273.88 995.83 274.99 995.83 276.35 995.83 277.71 996.94 278.81 998.29 278.81Z" fill="#191919" opacity="1" stroke-width="4" stroke="none"></path><path d="M984.01 280.45C984.01 280.45 985.76 285.05 985.65 286.47 985.54 287.95 984.55 288.66 983.46 289.21" stroke="#191919" stroke-width="4" stroke-linecap="round" stroke-linejoin="round" opacity="1" fill="none"></path><path d="M978.31 296.87C980.5 299.61 986.52 299.61 988.71 296.87" stroke="#191919" stroke-width="4" stroke-linecap="round" stroke-linejoin="round" opacity="1" fill="none"></path><path d="M994.41 232.61C998.79 243.94 1007.44 255.82 1019.64 261.41" stroke="#191919" stroke-width="4" stroke-linecap="round" stroke-linejoin="round" opacity="1" fill="none"></path><path d="M972.45 232.61C968.07 243.89 959.53 255.71 947.38 261.35" stroke="#191919" stroke-width="4" stroke-linecap="round" stroke-linejoin="round" opacity="1" fill="none"></path><path d="M983.51 356.55V408.17" stroke="#542f29" stroke-width="4" stroke-linecap="round" stroke-linejoin="round" opacity="1" fill="none"></path><path d="M938.79 389.39L935.17 408.34" stroke="#542f29" stroke-width="4" stroke-linecap="round" stroke-linejoin="round" opacity="1" fill="none"></path><path d="M1028.24 389.39L1031.85 408.34" stroke="#542f29" stroke-width="4" stroke-linecap="round" stroke-linejoin="round" opacity="1" fill="none"></path><path d="M884.48 473.76L884.42 432.1 926.09 432.05 926.14 473.76H884.48Z" fill="#ffffff" opacity="1" stroke-width="4" stroke="none"></path><path d="M926.09 432.1H884.48V473.71H926.09V432.1Z" stroke="#3b3b3b" stroke-width="4" stroke-linecap="round" stroke-linejoin="round" opacity="1" fill="none"></path><path d="M917.82 442.89L903.48 464.02 893.24 453.07" stroke="#3b3b3b" stroke-width="4" stroke-linecap="round" stroke-linejoin="round" opacity="1" fill="none"></path><path d="M948.53 452.36H1021.89" stroke="#3b3b3b" stroke-width="4" stroke-linecap="round" stroke-linejoin="round" opacity="1" fill="none"></path></g><g><path d="M296.58 865.83H455.56V987.8C455.56 987.88 455.56 987.88 455.48 987.88H296.66C296.58 987.88 296.58 987.88 296.58 987.8V865.83 865.83Z" fill="#cecece" opacity="1" stroke-width="4" stroke="none"></path><path d="M287.58 829.33H463.7C463.78 829.33 463.78 829.33 463.78 829.41L464.13 866.52C464.13 866.61 464.21 866.52 464.13 866.52L287.5 866.18C287.41 866.18 287.5 865.05 287.5 864.97V829.33C287.5 829.33 287.5 829.33 287.58 829.33Z" fill="#7a7a7a" opacity="1" stroke-width="4" stroke="none"></path><path d="M398.56 867.99C398.56 879.93 388.87 889.53 377.02 889.53H374.51C362.49 889.53 352.89 879.93 352.89 867.99H398.56Z" fill="#212121" opacity="1" stroke-width="4" stroke="none"></path><path d="M296.4 866.52H455.39" stroke="#212121" stroke-width="4" stroke-linecap="round" stroke-linejoin="round" opacity="1" fill="none"></path></g><g><path d="M890.14 685.04H759.36V752.01H890.14V685.04Z" fill="#cecece" opacity="1" stroke-width="4" stroke="none"></path><path d="M890.14 751.22H759.36V818.19H890.14V751.22Z" fill="#cecece" opacity="1" stroke-width="4" stroke="none"></path><path d="M759.36 685.04H890.14V725.3L759.36 690.48V685.04Z" fill="#62ccfe" opacity="0.2" stroke-width="4" stroke="none"></path><path d="M759.36 751.22H890.14V791.48L759.36 756.66V751.22Z" fill="#62ccfe" opacity="0.2" stroke-width="4" stroke="none"></path><path d="M809.15 751.22H840.43C840.43 759.81 833.42 766.82 824.83 766.82 816.16 766.9 809.15 759.89 809.15 751.22Z" fill="#231f20" opacity="1" stroke-width="4" stroke="none"></path><path d="M809.15 685.04H840.43C840.43 693.63 833.42 700.64 824.83 700.64 816.16 700.64 809.15 693.71 809.15 685.04Z" fill="#231f20" opacity="1" stroke-width="4" stroke="none"></path><path d="M519.22 565.29H924.73C960.89 565.29 990.2 594.59 990.2 630.83V671.72H453.67V630.83C453.67 594.59 482.98 565.29 519.22 565.29Z" fill="#61ccff" opacity="1" stroke-width="4" stroke="none"></path><path d="M990.2 682.28H889.67V986.4H990.2V682.28Z" fill="#61ccff" opacity="1" stroke-width="4" stroke="none"></path><path d="M889.67 682.28H986.18C988.15 682.28 989.57 684.25 988.94 686.14L889.9 985.69C889.83 985.84 889.67 985.76 889.67 985.69V682.28Z" fill="#3b677c" opacity="0.2" stroke-width="4" stroke="none"></path><path d="M554.2 682.28H453.67V986.4H554.2V682.28Z" fill="#61ccff" opacity="1" stroke-width="4" stroke="none"></path><path d="M990.2 667.71H453.67V685.04H990.2V667.71Z" fill="#cecece" opacity="1" stroke-width="4" stroke="none"></path><path d="M759.36 751.22L889.35 751.06" stroke="#000000" stroke-width="4" stroke-linecap="round" stroke-linejoin="round" opacity="1" fill="none"></path><path d="M453.67 685.04L990.2 684.88" stroke="#000000" stroke-width="4" stroke-linecap="round" stroke-linejoin="round" opacity="1" fill="none"></path></g><g><path d="M1090.95 459.64C1049.41 445.86 989.05 423.05 1015.16 451.97 1015.35 452.16 1015.16 452.45 1014.96 452.45 1011.37 452.36 994.49 452.84 1001.18 468.27 997.4 471.48 994.97 478.66 1001.09 483.8 1000.41 484.87 996.82 491.85 1003.03 496.42 1002.06 503.01 1007.88 507.48 1015.84 509.42 1019.52 510.68 1024.18 510.1 1024.18 505.44 1036.02 511.26 1046.4 512.33 1054.65 510.1 1055.43 510.58 1062.32 514.66 1072.41 519.61 1073.58 519.03 1092.5 490.98 1092.5 490.98L1090.95 459.64Z" fill="#cf5934" opacity="1" stroke-width="4" stroke="none"></path><path d="M1158.88 894.86C1159.46 882.64 1157.81 865.65 1158.39 851.19 1163.31 841.63 1195.37 821.16 1206.64 828.28L1246.22 851.49C1246.31 851.49 1246.51 851.58 1246.51 851.78L1246.51 852.84C1246.8 868.08 1246.99 881.47 1245.44 895.35 1242.82 896.51 1205.46 912.91 1199.34 912.91 1177.12 912.91 1160.14 896.51 1158.88 894.86Z" fill="#cf5934" opacity="1" stroke-width="4" stroke="none"></path><path d="M1287.17 895.07C1285.23 883.42 1279.02 867.22 1276.1 851.2 1281.63 844.55 1308.81 837.36 1322.21 834.07 1329.61 835.49 1362.28 851.2 1362.18 851.69 1365.38 865.76 1367.13 879.54 1368 894.97 1366.84 896.23 1351.6 910.5 1334.91 910.5 1313.27 910.3 1289.3 896.23 1287.17 895.07Z" fill="#cf5934" opacity="1" stroke-width="4" stroke="none"></path><path d="M1345.2 789.68C1336.85 762.22 1334.33 753.87 1336.17 721.46 1340.35 647.41 1339.18 600.64 1321.62 549.5 1312.59 549.59 1205.36 549.4 1196.04 549.5 1195.75 550.66 1163.05 640.91 1158.29 748.63 1156.55 787.54 1158 846.64 1158.1 851.01 1158.1 851.79 1246.51 851.69 1246.51 851.3 1243.3 800.06 1238.45 759.98 1248.25 726.21 1255.92 771.82 1266.79 821.61 1276.01 851.2 1281.34 851.2 1354.9 851.4 1361.79 851.4 1358.2 830.15 1348.69 802.49 1345.2 789.68Z" fill="#ffc930" opacity="1" stroke-width="4" stroke="none"></path><path d="M1241.07 627.52C1210.21 620.14 1228.26 824.52 1229.04 851.59 1231.08 851.59 1244.18 851.59 1246.22 851.69 1246.41 851.69 1246.51 851.59 1246.51 851.4 1246.02 838.98 1244.76 823.93 1244.18 813.26 1237.77 760.27 1248.25 726.31 1248.25 726.31 1241.46 681.48 1240.3 672.16 1241.07 627.52Z" fill="#211800" opacity="0.2" stroke-width="4" stroke="none"></path><path d="M1262.03 549.49H1321.42C1325.4 559.48 1327.73 569.19 1330.06 578.99 1330.06 578.99 1330.25 579.96 1330.35 580.15 1330.84 579.96 1273.48 568.99 1262.03 549.49Z" fill="#211800" opacity="0.2" stroke-width="4" stroke="none"></path><path d="M1241.07 627.51C1239.42 659.44 1243.01 695.25 1248.35 726.2" stroke="#211800" stroke-width="4" stroke-linecap="round" stroke-linejoin="round" opacity="1" fill="none"></path><path d="M1284.55 936.79C1291.05 928.83 1291.83 917.28 1287.26 895.54 1292.5 894.57 1362.86 895.15 1367.91 894.86 1369.36 908.26 1368.88 922.81 1368 937.56 1350.06 951.79 1348.4 955.77 1333.36 968.32 1331.13 969.2 1307.16 976.19 1305.99 976.48 1304.05 975.99 1258.15 971.24 1249.61 968.03 1249.51 967.94 1249.42 967.84 1249.42 967.65 1250.1 965.41 1254.85 956.19 1284.55 936.79Z" fill="#ff4f32" opacity="1" stroke-width="4" stroke="none"></path><path d="M1333.07 968.13C1332.39 950.08 1350.54 933.49 1367.91 937.47 1367.91 949.21 1367.13 958.52 1364.8 968.23 1364.8 968.32 1364.7 968.42 1358.43 976.38 1354.54 977.24 1333.07 968.13 1333.07 968.13Z" fill="#3f3258" opacity="1" stroke-width="4" stroke="none"></path><path d="M1115.11 967.84C1114.92 967.84 1114.82 967.55 1114.92 967.35 1118.7 962.6 1123.75 959.11 1129.28 954.93 1155.87 936.98 1158.39 923.59 1158.88 895.25 1164.21 894.77 1240.2 894.96 1245.54 895.54 1244.47 908.84 1243.11 922.81 1240.3 937.37 1230.04 952.56 1224.83 957.85 1202.55 968.03 1202.93 968.62 1168.48 976.48 1167.03 976.96 1166.93 977.06 1115.21 967.74 1115.11 967.84Z" fill="#ff4f32" opacity="1" stroke-width="4" stroke="none"></path><path d="M1201.96 968.42C1201.96 948.14 1222.05 932.71 1240.39 937.56 1238.45 947.56 1237 958.23 1234.08 967.84 1234.08 967.94 1233.89 968.03 1229.78 973.18 1229.58 971.18 1204.78 969.2 1201.96 968.42Z" fill="#3f3258" opacity="1" stroke-width="4" stroke="none"></path><path d="M1227 391.89V387.33C1227 387.14 1226.81 387.04 1226.61 387.04 1201.28 395.29 1185.76 384.32 1190.8 353.85 1184.69 347.25 1181.88 342.69 1193.33 339.39 1193.91 338.52 1193.52 336.48 1193.72 335.31 1193.91 331.04 1194.1 326.97 1194.39 323.09 1194.78 318.24 1196.82 314.64 1198.28 310.96 1200.8 303.97 1205.94 304.75 1223.7 302.13 1227.29 301.64 1231.46 301.16 1235.15 301.16 1243.11 301.16 1245.05 298.15 1256.21 304.36 1286.2 320.08 1273.97 320.47 1282.99 354.63 1282.99 358.99 1282.61 387.43 1282.7 392.67 1278.63 393.15 1229.91 397.32 1227 391.89Z" fill="#cf5934" opacity="1" stroke-width="4" stroke="none"></path><path d="M1207.11 336.48C1210.5 336.38 1210.7 341.62 1207.2 341.72 1203.81 341.82 1203.61 336.58 1207.11 336.48Z" fill="#010005" opacity="1" stroke-width="4" stroke="none"></path><path d="M1203.32 360.06C1206.23 359.96 1208.95 358.41 1210.41 355.89" stroke="#030202" stroke-width="4" stroke-linecap="round" stroke-linejoin="round" opacity="1" fill="none"></path><path d="M1227 386.94C1231.37 385.29 1235.06 383.93 1238.65 382.09" stroke="#030202" stroke-width="4" stroke-linecap="round" stroke-linejoin="round" opacity="1" fill="none"></path><path d="M1278.53 379.37C1273.58 379.37 1257.38 371.41 1254.85 370.15 1254.66 370.06 1254.66 369.86 1254.75 369.67 1257.28 367.24 1275.81 348.71 1265.14 335.31 1257.57 325.9 1238.45 338.13 1238.26 338.23 1237.87 338.61 1225.93 333.47 1226.32 317.65 1226.32 317.46 1226.13 317.26 1225.93 317.36 1214.68 323.38 1201.96 323.96 1194.98 320.66 1195.36 316.88 1198.57 313.67 1199.83 310.08 1202.35 303.1 1206.04 304.84 1223.8 302.22 1232.63 300.96 1245.73 299.41 1261.55 308.34 1278.14 317.75 1282.99 327.07 1282.99 354.04L1282.9 378.6C1282.9 378.79 1282.9 379.18 1282.51 379.18L1281.44 379.27C1280.57 379.37 1281.15 379.37 1278.53 379.37Z" fill="#010005" opacity="1" stroke-width="4" stroke="none"></path><path d="M1267.66 349.58C1271.54 329.59 1250.58 329.78 1238.65 338.91 1236.03 338.23 1197.69 324.25 1194.69 323.28 1195.17 302.51 1208.27 285.63 1235.35 286.5 1278.53 288.05 1284.35 308.14 1283.09 354.72L1267.86 349.87C1267.76 349.77 1267.66 349.68 1267.66 349.58Z" fill="#ffc930" opacity="1" stroke-width="4" stroke="none"></path><path d="M1251.65 349.77L1244.95 354.53" stroke="#030202" stroke-width="4" stroke-linecap="round" stroke-linejoin="round" opacity="1" fill="none"></path><path d="M1345.59 564.92C1328.99 564.72 1308.61 561.62 1290.47 554.34 1290.37 554.34 1290.27 554.15 1290.27 554.05 1290.37 553.18 1290.56 551.04 1290.66 550.17 1290.66 549.97 1290.56 549.88 1290.37 549.88 1290.27 549.88 1198.76 549.88 1196.14 549.88H1196.04C1190.03 547.06 1184.11 539.98 1184.4 529.11 1184.4 528.91 1184.11 528.72 1184.01 528.91 1152.18 553.56 1108.8 538.52 1072.8 519.99 1072.7 519.89 1072.61 519.79 1072.61 519.7 1073.48 514.65 1089.2 466.13 1090.75 460.31 1090.75 460.11 1090.95 460.11 1091.14 460.11 1114.82 467.39 1136.95 477 1140.73 477.48 1140.83 477.48 1140.92 477.48 1141.02 477.39 1144.51 471.17 1181.68 411.69 1226.9 401.01 1227 401.01 1227.1 400.92 1227.1 400.72 1227.1 399.46 1227 392.47 1227 392.47 1227 392.28 1227.1 392.18 1227.29 392.18 1227.58 392.47 1278.82 391.89 1282.61 392.57 1282.7 392.57 1282.8 392.67 1282.8 392.86 1282.8 394.03 1282.8 401.01 1282.8 401.01 1282.8 401.11 1282.9 401.3 1283.09 401.3 1297.07 402.27 1310.65 405.48 1319.58 409.94 1360.63 427.12 1452.33 563.07 1345.59 564.92Z" fill="#3c2c5b" opacity="1" stroke-width="4" stroke="none"></path><path d="M1311.91 472.24L1329.09 505.04" stroke="#000000" stroke-width="4" stroke-linecap="round" stroke-linejoin="round" opacity="1" fill="none"></path><path d="M1227.1 401.01C1227.1 401.01 1222.44 401.79 1218.75 403.44" stroke="#000000" stroke-width="4" stroke-linecap="round" stroke-linejoin="round" opacity="1" fill="none"></path><path d="M1150.82 934.94L1164.31 941.73" stroke="#1c1c1c" stroke-width="4" stroke-linecap="round" stroke-linejoin="round" opacity="1" fill="none"></path><path d="M1285.42 935.62L1298.62 941.73" stroke="#1c1c1c" stroke-width="4" stroke-linecap="round" stroke-linejoin="round" opacity="1" fill="none"></path><path d="M1158.88 894.96L1244.86 895.15" stroke="#1c1c1c" stroke-width="4" stroke-linecap="round" stroke-linejoin="round" opacity="1" fill="none"></path><path d="M1287.56 895.15H1368.1" stroke="#1c1c1c" stroke-width="4" stroke-linecap="round" stroke-linejoin="round" opacity="1" fill="none"></path><path d="M1238.94 338.82L1178.19 317.37" stroke="#211800" stroke-width="4" stroke-linecap="round" stroke-linejoin="round" opacity="1" fill="none"></path><path d="M1302.6 502.33C1308.32 493.79 1301.04 474.67 1311.91 472.24 1313.47 474.96 1326.76 500.48 1328.9 504.65 1328.99 504.85 1328.8 505.04 1328.6 505.04 1325.21 504.75 1305.9 503.1 1302.69 502.81 1302.6 502.71 1302.5 502.52 1302.6 502.33Z" fill="#000000" opacity="0.2" stroke-width="4" stroke="none"></path><path d="M1227 386.95C1231.46 385.3 1234.86 384.14 1238.65 382.1 1238.94 382 1239.13 382.29 1239.03 382.49L1228.75 397.82C1228.26 398.5 1227.19 398.4 1227.19 397.53L1227 386.95Z" fill="#030202" opacity="0.2" stroke-width="4" stroke="none"></path><path d="M1109.09 985.4C1108.9 985.4 1108.8 985.31 1108.8 985.11 1108.8 974.05 1113.36 968.91 1114.43 967.94 1114.53 967.84 1114.63 967.84 1114.72 967.74 1120.06 967.55 1233.7 967.74 1233.79 967.65 1233.99 967.65 1234.08 967.84 1234.08 968.03 1233.31 970.36 1231.08 979.58 1229.23 985.21 1229.23 985.31 1229.14 985.4 1228.94 985.4 1223.6 985.4 1109.09 985.4 1109.09 985.4Z" fill="#1c1c1c" opacity="1" stroke-width="4" stroke="none"></path><path d="M1244.66 985.21C1244.57 979.19 1245.24 972.4 1249.22 967.94 1249.32 967.84 1249.32 967.84 1249.42 967.84 1253.59 967.84 1364.51 968.13 1364.51 968.13 1364.7 968.13 1364.8 968.32 1364.8 968.52 1362.38 978.42 1361.21 983.17 1359.95 985.7 1359.95 985.79 1359.85 985.79 1359.76 985.79 1352.19 985.79 1254.56 985.5 1244.95 985.5 1244.76 985.5 1244.66 985.4 1244.66 985.21Z" fill="#1c1c1c" opacity="1" stroke-width="4" stroke="none"></path><path d="M1271.06 414.79H1105.11V597.23H1271.06V414.79Z" fill="#cecece" opacity="1" stroke-width="4" stroke="none"></path><path d="M1271.06 414.79H1228.84L1105.11 555.21V597.23H1149.56L1271.06 459.34V414.79Z" fill="#ff4f32" opacity="1" stroke-width="4" stroke="none"></path><path d="M1266.79 551.24C1258.83 551.24 1250.87 549.3 1243.6 546 1234.76 546.3 1209.24 546.1 1209.63 540.96 1209.63 536.69 1221.95 535.04 1229.81 534.36 1230.11 534.36 1230.11 533.87 1229.81 533.78 1219.43 532.61 1198.57 530.09 1201.77 519.51 1197.98 516.89 1195.95 511.36 1201.67 507.09 1202.93 496.51 1221.37 499.42 1230.69 498.84 1237.77 498.84 1244.08 498.94 1246.6 499.04 1246.89 499.04 1246.99 498.74 1246.8 498.55 1244.47 496.42 1239.03 491.08 1239.81 487.68 1242.33 477.98 1286.49 502.43 1284.94 501.07 1284.94 501.07 1293.96 501.95 1295.61 502.14 1296.39 502.14 1291.44 549.21 1290.76 553.96 1290.76 554.16 1290.56 554.25 1290.37 554.16 1288.72 553.57 1281.25 550.66 1266.79 551.24Z" fill="#cf5934" opacity="1" stroke-width="4" stroke="none"></path><path d="M1201.87 507.08C1219.63 506.98 1251.65 509.89 1251.65 509.89" stroke="#030202" stroke-width="4" stroke-linecap="round" stroke-linejoin="round" opacity="1" fill="none"></path><path d="M1202.16 519.6L1250.68 523.48" stroke="#030202" stroke-width="4" stroke-linecap="round" stroke-linejoin="round" opacity="1" fill="none"></path><path d="M1247.28 499.12L1258.05 500" stroke="#030202" stroke-width="4" stroke-linecap="round" stroke-linejoin="round" opacity="1" fill="none"></path><path d="M1015.84 414.79V459.34C1022.14 462.05 1035.63 469.23 1024.08 476.22 1029.62 480.3 1028.74 485.83 1024.96 488.93 1028.35 494.27 1027 498.83 1022.14 499.71 1025.54 505.04 1024.67 509.41 1019.72 510.09 1018.36 509.89 1017.1 509.7 1015.84 509.41V597.23H1105.11V414.79H1015.84Z" fill="#cecece" opacity="1" stroke-width="4" stroke="none"></path><path d="M1015.84 414.79V459.34C1022.14 462.05 1035.63 469.23 1024.08 476.22 1029.62 480.3 1028.74 485.83 1024.96 488.93 1028.35 494.27 1027 498.83 1022.14 499.71 1025.54 505.04 1024.67 509.41 1019.72 510.09 1018.36 509.89 1017.1 509.7 1015.84 509.41V597.23H1105.11V414.79H1015.84Z" fill="#000000" opacity="0.2" stroke-width="4" stroke="none"></path><path d="M1025.44 464.96C1029.13 468.17 1030.59 472.24 1024.08 476.22 1029.62 480.3 1028.74 485.83 1024.96 488.93 1026.9 492.23 1027.38 494.85 1026.41 496.79 1025.35 498.93 1022.92 499.51 1022.14 499.71 1025.54 505.04 1024.67 509.41 1019.72 510.09 1018.36 509.89 1017.1 509.7 1015.84 509.41" stroke="#030202" stroke-width="4" stroke-linecap="round" stroke-linejoin="round" opacity="1" fill="none"></path><path d="M1001.28 468.17C1006.13 473.02 1019.72 476.9 1023.6 475.93" stroke="#030202" stroke-width="4" stroke-linecap="round" stroke-linejoin="round" opacity="1" fill="none"></path><path d="M1001.28 483.69C1009.04 487.57 1020.69 489.52 1024.57 488.55" stroke="#030202" stroke-width="4" stroke-linecap="round" stroke-linejoin="round" opacity="1" fill="none"></path><path d="M1003.22 496.31C1008.07 498.25 1017.29 500.68 1022.14 499.71" stroke="#030202" stroke-width="4" stroke-linecap="round" stroke-linejoin="round" opacity="1" fill="none"></path><path d="M1284.84 501.16L1329.09 505.04" stroke="#000000" stroke-width="4" stroke-linecap="round" stroke-linejoin="round" opacity="1" fill="none"></path><path d="M1105.11 597.23V414.79" stroke="#000000" stroke-width="4" stroke-linecap="round" stroke-linejoin="round" opacity="1" fill="none"></path></g><g><path d="M669.92 667.73H731.39L735.34 645.42 739.29 622.95H677.81L676.37 631.08 669.92 667.73Z" fill="#3c2c5b" opacity="1" stroke-width="4" stroke="none"></path><path d="M735.34 645.42L739.29 622.95H677.81L676.37 631.08 735.34 645.42Z" fill="#000000" opacity="0.2" stroke-width="4" stroke="none"></path><path d="M627.95 627.2H787.63C798.26 627.2 808.35 618.63 810.25 608L829.6 498.41C831.5 487.78 824.37 479.21 813.82 479.21H654.06C643.43 479.21 633.34 487.78 631.44 498.41L612.16 608.08C610.26 618.63 617.32 627.2 627.95 627.2Z" fill="#3c2c5b" opacity="1" stroke-width="4" stroke="none"></path><path d="M636.22 615.67H783.46C790.29 615.67 796.74 610.13 797.95 603.37L815.64 503.19C816.85 496.36 812.3 490.9 805.47 490.9H658.23C651.4 490.9 644.95 496.44 643.73 503.19L626.05 603.37C624.91 610.13 629.47 615.67 636.22 615.67Z" fill="#ffffff" opacity="1" stroke-width="4" stroke="none"></path><path d="M677.05 627.2H738.53" stroke="#000000" stroke-width="4" stroke-linecap="round" stroke-linejoin="round" opacity="1" fill="none"></path></g><g><path d="M654.69 590.06H680.83C684.47 589.92 687.68 587.28 688.5 583.72L700.99 523.33C701.72 520.55 700.09 517.77 697.33 517.13 696.91 517.06 696.41 516.99 695.98 516.99H669.78C666.14 517.13 662.93 519.77 662.11 523.33L649.61 583.72C648.89 586.5 650.51 589.28 653.27 589.92 653.77 590.06 654.26 590.06 654.69 590.06Z" fill="#cecece" opacity="1" stroke-width="4" stroke="none"></path><path d="M705.33 561.57H731.47C735.1 561.43 738.32 558.79 739.14 555.23L745.72 523.33C746.44 520.55 744.82 517.77 742.06 517.13 741.64 517.06 741.14 516.99 740.71 516.99H714.5C710.87 517.13 707.65 519.77 706.83 523.33L700.25 555.23C699.53 558.01 701.15 560.79 703.91 561.43 704.4 561.57 704.83 561.64 705.33 561.57Z" fill="#cecece" opacity="1" stroke-width="4" stroke="none"></path><path d="M746.72 577.95H772.85C776.49 577.81 779.7 575.18 780.52 571.61L790.45 523.33C791.17 520.55 789.55 517.77 786.79 517.13 786.36 517.06 785.87 516.99 785.44 516.99H759.3C755.66 517.13 752.45 519.77 751.63 523.33L741.71 571.61C740.98 574.39 742.61 577.17 745.37 577.81 745.79 577.95 746.22 577.95 746.72 577.95Z" fill="#cecece" opacity="1" stroke-width="4" stroke="none"></path><path d="M669.92 531.16H688.44" stroke="#ff4f32" stroke-width="4" stroke-linecap="round" stroke-linejoin="round" opacity="1" fill="none"></path><path d="M715.5 531.16H734.02" stroke="#ff4f32" stroke-width="4" stroke-linecap="round" stroke-linejoin="round" opacity="1" fill="none"></path><path d="M759.66 531.16H778.18" stroke="#61ccff" stroke-width="4" stroke-linecap="round" stroke-linejoin="round" opacity="1" fill="none"></path></g><g><path d="M534.03 816.17C539.23 816.17 543.52 820.38 543.52 825.58L543.44 850.22V952.14C543.44 957.35 539.23 961.56 534.03 961.56 528.82 961.56 524.62 957.35 524.62 952.14V825.58C524.54 820.38 528.75 816.17 534.03 816.17Z" fill="#cecece" opacity="1" stroke-width="4" stroke="none"></path><path d="M534.03 816.17C528.75 816.17 524.54 820.38 524.62 825.58V858.79L543.44 850.22 543.52 825.58C543.44 820.38 539.23 816.17 534.03 816.17Z" fill="#000000" opacity="0.2" stroke-width="4" stroke="none"></path><path d="M600.06 974.18C598.76 973.03 534.56 916.95 534.56 916.95H533.42C533.42 916.95 469.22 973.03 467.91 974.18 466.31 975.1 464.55 979.61 467.07 982.52 469.06 984.97 472.58 985.58 475.26 983.82 475.41 983.75 510.54 959.64 531.58 945.18 533.03 944.19 534.87 944.19 536.32 945.18 557.37 959.64 592.57 983.75 592.64 983.82 595.4 985.58 598.99 984.89 600.83 982.52 603.43 979.54 601.67 975.1 600.06 974.18Z" fill="#231f20" opacity="1" stroke-width="4" stroke="none"></path><path d="M518.72 913.27H549.26C551.09 913.27 552.55 914.73 552.55 916.56V932.94H515.36V916.56C515.43 914.73 516.89 913.27 518.72 913.27Z" fill="#3c2c5b" opacity="1" stroke-width="4" stroke="none"></path><path d="M515.43 810.2H552.62V835.68C552.62 836.98 551.55 838.13 550.17 838.13H517.81C516.5 838.13 515.43 837.06 515.43 835.68V810.2Z" fill="#3c2c5b" opacity="1" stroke-width="4" stroke="none"></path><path d="M479.01 795.05H588.97C596.31 795.05 602.21 801.02 602.21 808.29 602.21 815.63 596.24 821.53 588.97 821.53H479.01C471.66 821.53 465.77 815.56 465.77 808.29 465.77 801.02 471.74 795.05 479.01 795.05Z" fill="#231f20" opacity="1" stroke-width="4" stroke="none"></path></g><g><path d="M502.3 674.13C503.18 670.93 503.84 667.73 504.35 664.52 489.97 638.56 484.27 605.57 487.34 569.1 489.46 551.51 499.6 541.84 512.3 536.59 522.45 532.43 534.27 531.13 545 530.93 544.93 529.43 544.78 525.89 544.78 523.5L601.72 523.23 599.89 535.16C613.61 539.18 624.56 539.38 630.33 542.65 633.69 544.49 635.8 546.13 637.12 547.42 654.27 562.08 661.64 637.87 661.72 638.62 661.86 638.83 670.33 647.01 680.77 657.16 690.4 666.57 703.1 691.24 703.1 691.24L684.85 704.19C705.22 710.6 725.44 717.48 737.19 723.01 767.77 737.25 772.52 764.45 776.31 786.33 776.75 788.51 777.12 790.69 777.55 792.8 779.45 802.82 781.93 821.84 784.34 841.54 788.36 874.87 777.7 901.59 777.77 902.13L610.18 904.79C610.18 904.79 605.22 872.69 608.43 856.8 608.87 854.62 609.45 852.17 609.89 850.06 616.53 820.41 625.29 799.14 626.46 796.35 626.53 796.21 626.39 796.07 626.24 796.07H594.56 549.02C516.02 796.07 497.27 772.35 492.59 760.09 486.97 744.34 485.81 724.37 501.06 678.29 501.5 676.86 501.94 675.5 502.3 674.13Z" fill="#ff4f32" opacity="1" stroke-width="4" stroke="none"></path><path d="M769.31 987.26H829.38C829.74 987.26 830.03 986.99 830.03 986.65 829.16 962.93 801.06 962.79 795.14 933.49 793.83 927.49 792.3 912.49 792.22 911.06 792.22 910.99 792.15 910.99 792.15 910.99 789.74 910.79 750.18 904.79 750.18 904.79 750.18 904.79 707.77 910.52 706.24 910.52 706.9 923.74 708.72 939.14 711.2 951.55 711.86 951.75 744.27 962.39 745.8 962.93 745.8 962.93 745.87 962.93 745.87 963 746.75 964.02 762.81 981.74 766.9 986.31 767.48 986.86 768.36 987.26 769.31 987.26Z" fill="#231f20" opacity="1" stroke-width="4" stroke="none"></path><path d="M745.8 962.93C745.8 962.86 745.8 962.86 745.8 962.93 731.57 951.89 712.66 951.48 711.2 951.48 711.13 951.48 711.13 951.48 711.13 951.48 714.56 969.34 717.7 979.29 719.89 987.33 720.62 987.33 735.15 987.33 739.67 987.33 740.47 987.33 741.13 986.79 741.28 986.11L745.8 962.93Z" fill="#ffc930" opacity="1" stroke-width="4" stroke="none"></path><path d="M724.85 986.65C722.66 955.3 681.79 965.79 685.44 910.99 684.56 911.13 645.22 899.68 645.22 899.68 645.22 899.68 604.13 910.86 602.45 911.33 602.15 924.76 602.88 939.82 604.49 952.57 605.22 952.77 639.53 962.52 640.55 962.79 642.37 964.7 659.16 983.45 662.3 986.92 662.52 987.2 662.88 987.33 663.25 987.33 669.23 987.33 717.48 987.33 724.05 987.33 724.56 987.33 724.93 986.99 724.85 986.65Z" fill="#231f20" opacity="1" stroke-width="4" stroke="none"></path><path d="M640.55 962.79C626.75 952.84 604.56 952.64 604.56 952.64 606.02 963.82 608.07 975.47 610.84 986.65 610.99 987.06 611.35 987.4 611.86 987.4H634.93C635.44 987.4 635.88 987.06 636.02 986.58L640.62 962.93C640.62 962.79 640.62 962.79 640.55 962.79Z" fill="#ffc930" opacity="1" stroke-width="4" stroke="none"></path><path d="M682.15 706.1L706.31 682.18C697.99 674.07 690.33 666.5 680.77 657.16 677.26 660.23 675.29 664.39 674.93 668.82 674.93 669.02 674.64 669.23 674.42 669.09 660.04 663.3 639.23 664.25 636.1 693.02 636.17 693.02 682.15 706.1 682.15 706.1Z" fill="#ffffff" opacity="1" stroke-width="4" stroke="none"></path><path d="M601.86 523.5L601.42 525.54C601.42 523.98 603.18 522.68 604.86 523.02 608.8 523.84 612.01 525.61 621.94 521.73 621.94 521.73 621.94 521.73 622.01 521.73 625.29 521.73 628.29 520.3 630.99 518.8 641.06 513 639.75 499.64 637.26 487.65 637.19 487.31 637.34 486.97 637.56 486.76 638.87 485.67 642.81 482.06 642.66 479.4 642.52 477.08 637.63 475.17 635.8 474.56 635.37 474.42 635.15 474.08 635.07 473.67 634.64 465.5 634.64 457.04 632.81 449.68 627.92 441.43 623.54 438.03 615.88 433.73 601.64 424.74 577.26 420.85 562.01 429.1 545.08 437.89 544.86 461.54 544.86 471.63 544.78 476.67 545.15 505.3 545.37 523.57 545.37 523.5 602.01 523.7 601.86 523.5Z" fill="#ae805a" opacity="1" stroke-width="4" stroke="none"></path><path d="M626.46 796.01H595.07C594.93 796.01 594.93 795.87 595 795.8 597.34 794.37 610.62 786.4 624.49 778.9 629.45 776.24 632.67 775.83 634.12 775.83 634.56 775.83 634.78 776.24 634.64 776.58L626.75 795.8C626.68 795.94 626.53 796.01 626.46 796.01Z" fill="#000000" opacity="0.2" stroke-width="4" stroke="none"></path><path d="M623.03 471.02C619.89 471.08 619.89 475.45 623.03 475.52 626.17 475.45 626.17 471.08 623.03 471.02Z" fill="#000000" opacity="1" stroke-width="4" stroke="none"></path><path d="M632.81 449.68C630.91 441.16 626.17 435.3 619.82 431.28 606.9 427.94 599.45 426.98 587.63 426.64 577.7 426.64 569.31 427.87 564.35 432.57 564.56 432.37 579.6 463.86 600.26 462.5 622.37 461 632.81 449.75 632.81 449.68Z" fill="#231f20" opacity="1" stroke-width="4" stroke="none"></path><path d="M751.93 732.28C757.77 721.98 715.51 690.08 706.31 682.18 705.8 682.59 679.09 702.08 679.23 702.01 679.38 702.08 687.04 705.01 686.75 704.88 686.68 704.94 691.64 711.69 697.19 717.55 702.74 723.48 713.69 734.39 719.09 728.12 720.55 725.32 718.28 720.14 716.61 716.94 715.95 715.37 714.34 713.8 715.44 714.42 727.92 719.6 740.25 725.53 751.93 732.28Z" fill="#ae805a" opacity="1" stroke-width="4" stroke="none"></path><path d="M683.47 745.7C689.74 742.23 684.78 725.6 684.71 725.46 684.49 725.12 698.94 744.27 705.07 737.39 707.48 733.16 696.82 715.17 696.75 714.96 683.83 692.27 668.28 675.02 639.82 664.59 638.43 664.12 635.58 665.14 635.58 665.14L621.13 702.01C626.75 707.12 633.1 711.49 639.89 714.96 639.96 715.24 645.51 741.07 656.17 742.64 657.77 742.84 659.38 742.57 660.84 741.82 660.84 741.82 663.39 745.7 666.97 746.25 669.67 746.59 671.79 745.23 673.91 742.36 674.42 743.25 679.38 748.36 683.47 745.7Z" fill="#ae805a" opacity="1" stroke-width="4" stroke="none"></path><path d="M504.35 664.59C507.27 669.77 510.7 675.02 514.27 679.59 517.34 682.65 525.08 687.77 525.08 687.77 536.68 694.86 582.3 714.76 605.73 723.82L600.62 737.52C600.48 737.86 600.04 738.07 599.67 737.93 523.83 710.33 507.63 689.2 502.23 674.2 503.18 670.93 503.84 667.73 504.35 664.59Z" fill="#000000" opacity="0.2" stroke-width="4" stroke="none"></path><path d="M613.25 655.46C617.7 638.21 623.1 617.56 623.76 615.04 623.76 614.9 623.98 614.84 624.05 614.9 630.91 619.4 627.41 643.53 632.88 661.93 631.06 666.71 624.05 667.59 621.21 666.98 618.5 666.43 611.79 662.41 613.25 655.46Z" fill="#000000" opacity="0.2" stroke-width="4" stroke="none"></path><path d="M525.08 687.7C534.05 674.95 551.35 672.09 563.69 672.09 570.91 672.09 577.12 672.98 580.18 673.59 580.99 673.73 581.64 672.98 581.35 672.29 578.51 665.55 577.92 655.25 582.52 647.55 582.59 647.42 582.74 647.42 582.81 647.42 593.98 650.01 603.83 652.66 613.25 655.46 617.77 656.82 622.15 658.25 626.53 659.68 628.58 660.37 630.69 661.12 632.81 661.93 635.29 662.82 637.7 663.77 639.82 664.59L637.19 671.89 631.21 688.65 617.48 727.1C617.34 727.57 616.83 727.78 616.32 727.64 613.83 726.89 610.18 725.53 605.73 723.82 582.3 714.76 536.68 694.86 525.08 687.7 525.08 687.77 525.08 687.77 525.08 687.7Z" fill="#ffffff" opacity="1" stroke-width="4" stroke="none"></path><path d="M602.52 911.33C603.54 911.33 788.94 910.99 792.15 910.99 792.15 910.99 792.15 910.99 792.15 910.92 792.01 909.49 788.5 872 784.41 841.4 779.67 839.02 774.63 837.86 769.52 837.86 749.82 836.83 728.28 860.35 721.42 871.05 721.06 871.6 720.18 871.66 719.74 871.12 714.49 864.03 708.36 860.42 701.42 860.42 689.96 859.74 675.51 873.23 669.01 881.21 668.36 881.96 667.12 881.48 667.26 880.52 669.09 867.98 671.35 832.47 646.46 832.54 635 832.54 621.06 841.33 608.5 856.67 604.93 874.66 602.74 893.07 602.52 911.33Z" fill="#ffffff" opacity="1" stroke-width="4" stroke="none"></path><path d="M586.46 575.92C606.24 575.92 623.03 563.24 630.33 542.79 630.33 542.72 630.33 542.72 630.33 542.65 629.89 542.38 627.19 540.74 625.66 539.99 621.35 537.88 617.04 536.18 616.02 535.77 615.95 535.7 615.88 535.63 616.02 535.56 620.33 531.07 622.15 522.48 622.08 521.73 622.08 521.73 622.08 521.66 622.01 521.66 613.54 521.52 605.88 521.39 603.25 520.36 602.88 520.23 602.59 519.96 602.45 519.55 595.59 503.19 600.91 483.97 606.61 468.22 611.72 454.39 619.6 431.82 619.96 431.21 611.79 426.3 600.04 423.37 587.99 423.37 552.89 423.51 544.27 442.66 541.5 471.02 538.36 501.96 510.26 507.62 510.99 528.82 511.13 532.63 512.38 536.52 512.45 536.66 518.07 534.75 523.47 533.32 529.16 532.29 541.94 559.63 563.47 575.92 586.46 575.92Z" fill="#ffc930" opacity="1" stroke-width="4" stroke="none"></path><path d="M585.95 555.6C596.02 555.6 614.49 553.76 625.51 540.2 625.58 540.13 625.51 540.06 625.44 540.06 621.21 538.02 616.97 536.31 615.95 535.91 615.8 535.84 615.66 535.91 615.59 535.97 611.79 539.86 602.59 545.72 586.83 546.61 582.01 547.22 573.47 547.29 566.61 547.7 551.28 548.58 571.94 556.08 585.95 555.6Z" fill="#0f0d07" opacity="0.2" stroke-width="4" stroke="none"></path><path d="M512.3 536.66C517.63 534.75 525.59 532.84 529.02 532.29 527.19 528 525.88 523.23 525.15 518.73 525.15 518.66 525.08 518.59 525 518.59 523.32 518.32 522.59 520.02 521.57 522.14 520.04 525.27 518.21 529.09 512.89 529.09 512.16 529.09 511.72 528.95 510.99 528.82 510.99 528.82 510.92 528.82 510.92 528.88 511.06 532.36 511.5 534 512.3 536.66Z" fill="#0f0d07" opacity="0.2" stroke-width="4" stroke="none"></path><path d="M677.7 943.23L688.72 939.07" stroke="#818181" stroke-width="4" stroke-linecap="round" stroke-linejoin="round" opacity="1" fill="none"></path><path d="M683.61 954.21L693.83 948.34" stroke="#818181" stroke-width="4" stroke-linecap="round" stroke-linejoin="round" opacity="1" fill="none"></path><path d="M785.73 943.23L796.17 939.28" stroke="#818181" stroke-width="4" stroke-linecap="round" stroke-linejoin="round" opacity="1" fill="none"></path><path d="M791.49 954.21L801.49 948.89" stroke="#818181" stroke-width="4" stroke-linecap="round" stroke-linejoin="round" opacity="1" fill="none"></path><path d="M620.69 489.97C622.15 492.69 624.56 493.37 628.5 493.37" stroke="#151413" stroke-width="4" stroke-linecap="round" stroke-linejoin="round" opacity="1" fill="none"></path><path d="M613.4 655.05L623.69 614.9" stroke="#000000" stroke-width="4" stroke-linecap="round" stroke-linejoin="round" opacity="1" fill="none"></path><path d="M634.85 775.9L626.68 796.07" stroke="#000000" stroke-width="4" stroke-linecap="round" stroke-linejoin="round" opacity="1" fill="none"></path><path d="M684.78 725.73C683.47 719.8 681.72 712.37 679.23 705.42" stroke="#151413" stroke-width="4" stroke-linecap="round" stroke-linejoin="round" opacity="1" fill="none"></path><path d="M666.53 707.19C670.47 720.01 672.66 733.71 673.69 742.23" stroke="#151413" stroke-width="4" stroke-linecap="round" stroke-linejoin="round" opacity="1" fill="none"></path><path d="M652.45 709.24C655.37 719.46 659.45 732.75 660.84 741.82" stroke="#151413" stroke-width="4" stroke-linecap="round" stroke-linejoin="round" opacity="1" fill="none"></path><path d="M685.36 697.51C689.53 703.17 693.39 708.96 696.9 714.96 696.9 714.96 697.85 716.26 699.89 720.35" stroke="#151413" stroke-width="4" stroke-linecap="round" stroke-linejoin="round" opacity="1" fill="none"></path><path d="M710.55 708.22L714.93 714.28" stroke="#151413" stroke-width="4" stroke-linecap="round" stroke-linejoin="round" opacity="1" fill="none"></path><path d="M582.59 647.35C572.67 644.96 565.59 643.8 564.86 643.53L554.78 610.4" stroke="#000000" stroke-width="4" stroke-linecap="round" stroke-linejoin="round" opacity="1" fill="none"></path><path d="M504.35 664.59C506.97 669.64 510.62 674.88 514.49 679.18 516.97 681.84 520.4 685.11 525.08 687.77" stroke="#000000" stroke-width="4" stroke-linecap="round" stroke-linejoin="round" opacity="1" fill="none"></path><path d="M586.83 546.54C608.14 545.04 616.02 535.5 616.02 535.5" stroke="#0f0d07" stroke-width="4" stroke-linecap="round" stroke-linejoin="round" opacity="1" fill="none"></path><path d="M529.02 532.29C527.48 529.16 525.59 521.32 525.08 518.73" stroke="#0f0d07" stroke-width="4" stroke-linecap="round" stroke-linejoin="round" opacity="1" fill="none"></path><path d="M602.3 519.62C601.57 517.71 600.77 515.12 599.96 511.5" stroke="#0f0d07" stroke-width="4" stroke-linecap="round" stroke-linejoin="round" opacity="1" fill="none"></path></g><g><path d="M458.5 230.46C490.82 230.46 517.04 256.68 517.04 289.01V339.1C517.04 343.81 513.23 347.56 508.58 347.56H458.5C426.17 347.56 399.95 321.34 399.95 289.01 399.95 256.62 426.17 230.46 458.5 230.46Z" fill="#ffffff" opacity="1" stroke-width="4" stroke="none"></path><path d="M438.45 295.06C441.79 295.06 444.49 292.35 444.49 289.01 444.49 285.67 441.79 282.97 438.45 282.97 435.11 282.97 432.4 285.67 432.4 289.01 432.4 292.35 435.11 295.06 438.45 295.06Z" fill="#61ccff" opacity="1" stroke-width="4" stroke="none"></path><path d="M478.54 295.06C481.88 295.06 484.59 292.35 484.59 289.01 484.59 285.67 481.88 282.97 478.54 282.97 475.2 282.97 472.5 285.67 472.5 289.01 472.5 292.35 475.2 295.06 478.54 295.06Z" fill="#61ccff" opacity="1" stroke-width="4" stroke="none"></path><path d="M458.81 295.06C462.15 295.06 464.86 292.35 464.86 289.01 464.86 285.67 462.15 282.97 458.81 282.97 455.47 282.97 452.77 285.67 452.77 289.01 452.77 292.35 455.47 295.06 458.81 295.06Z" fill="#61ccff" opacity="1" stroke-width="4" stroke="none"></path></g></svg>