<svg xmlns="http://www.w3.org/2000/svg" height="1200" width="1600" version="1.1" xmlns:xlink="http://www.w3.org/1999/xlink" xmlns:svgjs="http://svgjs.com/svgjs"><rect fill="#f3ebe9" width="1600" height="1200"></rect><g><path d="M887.95 696.53H749.84V767.25H887.95V696.53Z" fill="#3c2c5b" opacity="1" stroke-width="4" stroke="none"></path><path d="M887.95 766.41H749.84V837.13H887.95V766.41Z" fill="#3c2c5b" opacity="1" stroke-width="4" stroke="none"></path><path d="M749.84 696.53H887.95V739.04L749.84 702.27V696.53Z" fill="#ffffff" opacity="0.2" stroke-width="4" stroke="none"></path><path d="M749.84 766.41H887.95V808.93L749.84 772.15V766.41Z" fill="#ffffff" opacity="0.2" stroke-width="4" stroke="none"></path><path d="M802.42 766.41H835.45C835.45 775.48 828.04 782.89 818.98 782.89 809.82 782.97 802.42 775.57 802.42 766.41Z" fill="#231f20" opacity="1" stroke-width="4" stroke="none"></path><path d="M802.42 696.53H835.45C835.45 705.6 828.04 713 818.98 713 809.82 713 802.42 705.68 802.42 696.53Z" fill="#231f20" opacity="1" stroke-width="4" stroke="none"></path><path d="M496.25 570.07H924.47C962.66 570.07 993.61 601.02 993.61 639.29V682.47H427.03V639.29C427.03 601.02 457.98 570.07 496.25 570.07Z" fill="#ffffff" opacity="1" stroke-width="4" stroke="none"></path><path d="M993.61 693.62H887.45V1014.76H993.61V693.62Z" fill="#ffffff" opacity="1" stroke-width="4" stroke="none"></path><path d="M887.45 693.62H989.37C991.45 693.62 992.94 695.7 992.28 697.69L887.7 1014.01C887.61 1014.18 887.45 1014.09 887.45 1014.01V693.62Z" fill="#ababab" opacity="0.2" stroke-width="4" stroke="none"></path><path d="M533.19 693.62H427.03V1014.76H533.19V693.62Z" fill="#ffffff" opacity="1" stroke-width="4" stroke="none"></path><path d="M993.61 678.22H427.03V696.53H993.61V678.22Z" fill="#3c2c5b" opacity="1" stroke-width="4" stroke="none"></path><path d="M749.84 766.41L887.12 766.25" stroke="#000000" stroke-width="4" stroke-linecap="round" stroke-linejoin="round" opacity="1" fill="none"></path><path d="M427.03 696.53L993.61 696.36" stroke="#000000" stroke-width="4" stroke-linecap="round" stroke-linejoin="round" opacity="1" fill="none"></path></g><g><path d="M780.83 678.43L766.08 594.53 673.84 594.51 685.83 662.51C686.6 666.99 688.93 671.04 692.39 673.97 695.88 676.89 700.28 678.46 704.82 678.43H780.83Z" fill="#ff4f32" opacity="1" stroke-width="4" stroke="none"></path><path d="M772.47 631.25L765.98 594.53 673.75 594.51 684.42 655.2 772.47 631.25Z" fill="#1d0c09" opacity="0.3" stroke-width="4" stroke="none"></path><path d="M860.91 626.16C865.55 626.29 870.15 625.39 874.39 623.52 878.62 621.65 882.4 618.84 885.43 615.34 888.43 611.64 890.58 607.31 891.7 602.67 892.81 598.03 892.89 593.19 891.92 588.52L861.15 414.1C857.49 393.34 837.63 376.48 816.9 376.48H552.29C547.65 376.35 543.05 377.25 538.82 379.12 534.58 380.99 530.81 383.77 527.78 387.29 524.77 391 522.63 395.32 521.51 399.96 520.39 404.6 520.32 409.42 521.29 414.1L552.05 588.54C555.74 609.29 575.59 626.16 596.31 626.16H860.91Z" fill="#ff4f32" opacity="1" stroke-width="4" stroke="none"></path><path d="M864.89 553.1L840.77 416.33C839.74 411.22 837.01 406.58 833.03 403.21 829.05 399.81 824.05 397.87 818.84 397.67L557.79 397.67C555.48 397.6 553.19 398.05 551.08 398.99 548.97 399.92 547.1 401.32 545.6 403.06 544.1 404.89 543.05 407.04 542.48 409.35 541.93 411.64 541.9 414.02 542.37 416.35L566.54 553.1H864.89Z" fill="#f7e8e5" opacity="1" stroke-width="4" stroke="none"></path><path d="M724.94 605C726.88 605.07 728.82 604.71 730.62 603.92 732.4 603.15 733.99 601.98 735.28 600.51 736.54 599.04 737.48 597.3 737.99 595.41 738.52 593.52 738.59 591.56 738.25 589.64 737.51 585.07 735.2 580.91 731.74 577.85 728.27 574.79 723.85 573.03 719.22 572.86 717.35 572.83 715.48 573.17 713.73 573.89 711.99 574.62 710.43 575.7 709.13 577.08 703.65 583.06 705.01 593.23 712.16 599.78 715.62 603.02 720.17 604.89 724.94 605V605Z" fill="#1d0c09" opacity="1" stroke-width="4" stroke="none"></path><path d="M771.87 626.29H679.65" stroke="#1d0c09" stroke-width="4" stroke-linecap="round" stroke-linejoin="round" opacity="1" fill="none"></path><path d="M778.08 663.36H685.87" stroke="#1d0c09" stroke-width="4" stroke-linecap="round" stroke-linejoin="round" opacity="1" fill="none"></path><path d="M812.92 678.43L812.75 677.67C812.02 673.53 809.84 669.77 806.61 667.08 803.38 664.36 799.31 662.88 795.1 662.88H685.87C686.64 667.24 688.91 671.18 692.3 674.03 695.69 676.87 699.98 678.43 704.4 678.43H812.92Z" fill="#ff4f32" opacity="1" stroke-width="4" stroke="none"></path></g><g><path d="M686.65 426.63L676.07 470.82" stroke="#61ccff" stroke-width="4" stroke-linecap="round" stroke-linejoin="round" opacity="1" fill="none"></path><path d="M622.65 478.19L673.11 470.82 653.36 452.64" stroke="#61ccff" stroke-width="4" stroke-linecap="round" stroke-linejoin="round" opacity="1" fill="none"></path><path d="M648.31 527.17L674.79 472.27" stroke="#61ccff" stroke-width="4" stroke-linecap="round" stroke-linejoin="round" opacity="1" fill="none"></path><path d="M676.73 471.52L699.24 477.61" stroke="#61ccff" stroke-width="4" stroke-linecap="round" stroke-linejoin="round" opacity="1" fill="none"></path><path d="M676.47 473.41L691.93 501.97" stroke="#61ccff" stroke-width="4" stroke-linecap="round" stroke-linejoin="round" opacity="1" fill="none"></path><path d="M693.47 502.49L740.3 500.52 746.68 442.81" stroke="#61ccff" stroke-width="4" stroke-linecap="round" stroke-linejoin="round" opacity="1" fill="none"></path><path d="M741.84 500.69L782.12 488.92" stroke="#61ccff" stroke-width="4" stroke-linecap="round" stroke-linejoin="round" opacity="1" fill="none"></path><path d="M739.72 503.13L730.21 522.59" stroke="#61ccff" stroke-width="4" stroke-linecap="round" stroke-linejoin="round" opacity="1" fill="none"></path><path d="M742.68 502.49L794.59 530.36" stroke="#61ccff" stroke-width="4" stroke-linecap="round" stroke-linejoin="round" opacity="1" fill="none"></path><path d="M675.34 475.44C673.02 475.44 671.14 473.55 671.14 471.23 671.14 468.91 673.02 467.03 675.34 467.03 677.66 467.03 679.55 468.91 679.55 471.23 679.55 473.55 677.66 475.44 675.34 475.44Z" fill="#3c2c5b" opacity="1" stroke-width="4" stroke="none"></path><path d="M621.69 482.98C624.02 482.98 625.9 481.09 625.9 478.77 625.9 476.45 624.02 474.57 621.69 474.57 619.37 474.57 617.49 476.45 617.49 478.77 617.49 481.09 619.37 482.98 621.69 482.98Z" fill="#3c2c5b" opacity="1" stroke-width="4" stroke="none"></path><path d="M699.7 481.82C702.02 481.82 703.91 479.93 703.91 477.61 703.91 475.29 702.02 473.41 699.7 473.41 697.38 473.41 695.5 475.29 695.5 477.61 695.5 479.93 697.38 481.82 699.7 481.82Z" fill="#3c2c5b" opacity="1" stroke-width="4" stroke="none"></path><path d="M692.45 507.34C694.77 507.34 696.66 505.45 696.66 503.13 696.66 500.81 694.77 498.93 692.45 498.93 690.13 498.93 688.25 500.81 688.25 503.13 688.25 505.45 690.13 507.34 692.45 507.34Z" fill="#3c2c5b" opacity="1" stroke-width="4" stroke="none"></path><path d="M740.3 504.73C742.62 504.73 744.5 502.84 744.5 500.52 744.5 498.2 742.62 496.32 740.3 496.32 737.98 496.32 736.1 498.2 736.1 500.52 736.1 502.84 737.98 504.73 740.3 504.73Z" fill="#3c2c5b" opacity="1" stroke-width="4" stroke="none"></path><path d="M728.12 529.66C730.44 529.66 732.33 527.78 732.33 525.46 732.33 523.14 730.44 521.25 728.12 521.25 725.8 521.25 723.92 523.14 723.92 525.46 723.92 527.78 725.8 529.66 728.12 529.66Z" fill="#3c2c5b" opacity="1" stroke-width="4" stroke="none"></path><path d="M794.82 534.01C797.14 534.01 799.02 532.13 799.02 529.81 799.02 527.49 797.14 525.6 794.82 525.6 792.5 525.6 790.61 527.49 790.61 529.81 790.61 532.13 792.5 534.01 794.82 534.01Z" fill="#3c2c5b" opacity="1" stroke-width="4" stroke="none"></path><path d="M782.93 493.13C785.25 493.13 787.13 491.24 787.13 488.92 787.13 486.6 785.25 484.72 782.93 484.72 780.61 484.72 778.72 486.6 778.72 488.92 778.72 491.24 780.61 493.13 782.93 493.13Z" fill="#3c2c5b" opacity="1" stroke-width="4" stroke="none"></path><path d="M746.68 447.02C749 447.02 750.88 445.13 750.88 442.81 750.88 440.49 749 438.61 746.68 438.61 744.36 438.61 742.48 440.49 742.48 442.81 742.48 445.13 744.36 447.02 746.68 447.02Z" fill="#3c2c5b" opacity="1" stroke-width="4" stroke="none"></path><path d="M647.79 531.11C650.11 531.11 652 529.23 652 526.91 652 524.59 650.11 522.7 647.79 522.7 645.47 522.7 643.59 524.59 643.59 526.91 643.59 529.23 645.47 531.11 647.79 531.11Z" fill="#3c2c5b" opacity="1" stroke-width="4" stroke="none"></path><path d="M654.17 456.88C656.49 456.88 658.38 454.99 658.38 452.67 658.38 450.35 656.49 448.47 654.17 448.47 651.85 448.47 649.97 450.35 649.97 452.67 649.97 454.99 651.85 456.88 654.17 456.88Z" fill="#3c2c5b" opacity="1" stroke-width="4" stroke="none"></path><path d="M686.65 429.62C688.97 429.62 690.86 427.73 690.86 425.41 690.86 423.09 688.97 421.21 686.65 421.21 684.33 421.21 682.45 423.09 682.45 425.41 682.45 427.73 684.33 429.62 686.65 429.62Z" fill="#3c2c5b" opacity="1" stroke-width="4" stroke="none"></path></g><g><path d="M1167.42 621.93C1159.96 591.26 1148.17 552.02 1131.32 517.76 1129.75 514.53 1127.91 511.4 1125.88 508.45L1111.33 554.05 1107.46 604.71 1113.17 657.21 1109.86 682.64H1121.92C1145.41 682.73 1176.45 665.69 1167.42 621.93Z" fill="#9e76dd" opacity="1" stroke-width="4" stroke="none"></path><path d="M1039.67 361.17C1015.44 360.25 1000.7 356.38 991.49 370.29 986.43 378.21 984.22 392.48 982.19 406.49 982.19 406.49 973.62 408.24 972.98 411.83 972.24 416.07 979.79 422.05 979.79 422.05 976.75 431.91 975.1 443.24 982.28 453.37 992.69 467.92 1018.67 463.96 1020.32 463.5L1020.23 479.62 1083.7 481.56C1083.7 481.56 1081.95 413.03 1082.04 397.73 1082.04 367.34 1067.58 362.18 1039.67 361.17Z" fill="#ac704e" opacity="1" stroke-width="4" stroke="none"></path><path d="M1020.32 463.41L1020.23 475.75 1035.43 456.59C1026.96 461.94 1020.32 463.41 1020.32 463.41Z" fill="#23211f" opacity="0.2" stroke-width="4" stroke="none"></path><path d="M1083.79 463.78C1068.96 462.77 1058.92 458.34 1053.21 454.84 1046.94 451.07 1046.22 450.01 1044.77 448.52L1046.15 447.43 1046.45 447.24C1047.01 446.84 1066.56 434.21 1060.21 418.37 1058.46 414.13 1055.23 411.74 1050.35 411 1049.43 410.91 1048.51 410.81 1047.5 410.81 1038.19 410.81 1026.03 416.34 1025.94 416.43L1025.85 416.53 1025.79 416.57C1025.67 416.34 1020.32 405.56 1018.83 394.96 1018.76 394.7 1016.55 394.97 1014.52 394.97 1013.78 394.97 1013.23 394.97 1012.68 394.88 1010.38 394.51 1008.81 393.59 1007.89 392.02 1006.23 388.98 1007.52 384.75 1007.12 383.68 1006.97 383.18 1005.77 383.18 1004.66 383.18 1002.18 383.18 999.87 383 997.85 382.72 992.14 381.8 987.53 378.94 987.53 378.94 988.64 375.26 990.11 372.22 991.58 369.92 1000.61 356.19 1015.44 349.65 1036.63 349.65 1038.01 349.65 1039.48 349.65 1040.96 349.74 1055.14 350.3 1066.19 354.63 1073.93 362.64 1081.85 370.93 1085.91 382.63 1085.91 397.64 1085.81 408.24 1084.89 443.51 1084.25 463.59V463.78H1083.79Z" fill="#231f20" opacity="1" stroke-width="4" stroke="none"></path><path d="M839.42 521.53C820.17 510.94 777.7 489.85 755.6 482.48 749.88 480.54 749.88 494.82 756.61 498.6 751.82 497.68 724.28 493.53 715.99 498.5 710.74 501.64 715.8 507.07 715.8 507.07 713.68 507.07 705.76 510.66 710.74 519.05 697.84 534.7 740.49 537.1 746.11 539.77 741.32 540.88 718.29 543.64 718.29 547.42 718.29 553.59 731.46 554.69 757.44 553.13 779.36 562.71 788.76 560.22 794.19 559.85L805.52 572.75C818.78 561.51 839.42 521.53 839.42 521.53Z" fill="#ac704e" opacity="1" stroke-width="4" stroke="none"></path><path d="M988.27 429.79L997.11 428.32" stroke="#23211f" stroke-width="4" stroke-linecap="round" stroke-linejoin="round" opacity="1" fill="none"></path><path d="M1020.32 463.5C1024.84 461.94 1028.8 459.63 1032.57 457.61" stroke="#23211f" stroke-width="4" stroke-linecap="round" stroke-linejoin="round" opacity="1" fill="none"></path><path d="M1034.6 432.09L1042.8 427.21" stroke="#23211f" stroke-width="4" stroke-linecap="round" stroke-linejoin="round" opacity="1" fill="none"></path><path d="M993.7 409.06C995.33 409.06 996.65 407.74 996.65 406.12 996.65 404.49 995.33 403.17 993.7 403.17 992.08 403.17 990.76 404.49 990.76 406.12 990.76 407.74 992.08 409.06 993.7 409.06Z" fill="#231f20" opacity="1" stroke-width="4" stroke="none"></path><path d="M716.45 506.43C732.66 507.53 748.69 510.48 764.25 514.99" stroke="#23211f" stroke-width="4" stroke-linecap="round" stroke-linejoin="round" opacity="1" fill="none"></path><path d="M756.42 498.04C756.42 498.04 769.14 501.54 773.74 503.48" stroke="#23211f" stroke-width="4" stroke-linecap="round" stroke-linejoin="round" opacity="1" fill="none"></path><path d="M712.3 518.77C712.3 518.77 737.45 522.73 758.45 529.36" stroke="#23211f" stroke-width="4" stroke-linecap="round" stroke-linejoin="round" opacity="1" fill="none"></path><path d="M990.94 490.12C984.77 492.24 978.5 494.82 972.61 497.68 941.29 512.69 920.93 528.26 893.3 551.19 893.3 551.19 870.37 536.92 839.32 521.44L805.61 572.65C826.34 593.93 863.37 623.87 891.37 623.87 931.53 623.87 964.04 600.93 964.04 600.93 1011.11 569.34 1000.52 510.66 990.94 490.12Z" fill="#9e76dd" opacity="1" stroke-width="4" stroke="none"></path><path d="M1115.01 611.43C1115.01 611.43 1140.8 581.87 1117.87 555.06 1117.87 555.06 1131.23 542.72 1125.79 508.45 1117.68 495.93 1100.28 485.89 1089.78 483.21L1089.87 472.07H1014.15V483.12C1005.03 484.6 999.41 487.08 990.66 490.03 1000.24 510.48 1009.36 568.88 964.04 600.84 966.9 604.8 969.85 608.21 973.53 611.25 952.53 638.97 979.24 657.12 979.24 657.12V657.67L1113.08 657.12C1113.17 657.4 1138.87 633.45 1115.01 611.43Z" fill="#61ccff" opacity="1" stroke-width="4" stroke="none"></path><path d="M1115.01 611.53H1094.47C1094.47 611.53 1116.12 621.01 1122.57 643.67 1126.44 634.83 1127.36 622.95 1115.01 611.53Z" fill="#39454a" opacity="0.2" stroke-width="4" stroke="none"></path><path d="M1124.32 595.5C1128.55 584.54 1130.12 569.43 1117.87 555.15H1065.64C1065.64 555.15 1118.51 560.31 1124.32 595.5Z" fill="#39454a" opacity="0.2" stroke-width="4" stroke="none"></path><path d="M973.53 611.53H1115.93" stroke="#39454a" stroke-width="4" stroke-linecap="round" stroke-linejoin="round" opacity="1" fill="none"></path><path d="M996.47 555.15H1118.88" stroke="#39454a" stroke-width="4" stroke-linecap="round" stroke-linejoin="round" opacity="1" fill="none"></path><path d="M995.45 501.64H1120.26" stroke="#39454a" stroke-width="4" stroke-linecap="round" stroke-linejoin="round" opacity="1" fill="none"></path><path d="M894.59 551.93C899.01 555.52 907.3 560.22 907.49 559.85" stroke="#000000" stroke-width="4" stroke-linecap="round" stroke-linejoin="round" opacity="1" fill="none"></path><path d="M1192.57 305.35C1189.9 299.82 1173.6 301.75 1153.24 309.4 1163.56 298.35 1168.71 288.86 1165.67 284.99 1161.35 279.37 1141.37 287.39 1120.58 300.4 1119.59 301.4 1120.73 284.71 1116.86 282.96 1109.96 279.83 1095.59 296.69 1085.18 320.27 1076.43 340.17 1076.34 355.36 1079.74 362.55 1079.74 362.82 1079.84 363.1 1079.93 363.38 1080.11 364.11 1080.57 364.76 1081.13 365.4 1085.64 372.5 1100.28 381.62 1121.47 384.47 1147.45 387.88 1169.36 384.56 1170.28 376.92 1170.93 371.39 1159.96 364.11 1144.31 359.79 1169.27 351.59 1187.32 340.99 1185.2 333.53 1184.28 330.4 1180.04 328.47 1173.5 327.73 1186.95 318.61 1194.78 309.95 1192.57 305.35Z" fill="#231f20" opacity="1" stroke-width="4" stroke="none"></path><path d="M1086.39 389.47C1095.96 384.72 1098.88 371.11 1092.9 359.08 1086.92 347.06 1074.33 341.16 1064.76 345.91 1055.19 350.67 1052.28 364.27 1058.25 376.29 1064.22 388.32 1076.82 394.23 1086.39 389.47Z" fill="#ffc930" opacity="1" stroke-width="4" stroke="none"></path><path d="M1118.88 354.35C1121.09 354.63 1123.3 355 1125.51 355.27 1132.24 356.28 1139.24 357.85 1145.78 359.79" stroke="#807b7c" stroke-width="4" stroke-linecap="round" stroke-linejoin="round" opacity="1" fill="none"></path><path d="M1137.49 316.12C1143.38 313.27 1149.28 310.87 1154.71 308.85" stroke="#807b7c" stroke-width="4" stroke-linecap="round" stroke-linejoin="round" opacity="1" fill="none"></path><path d="M1114.09 338.23C1118.61 336.48 1123.49 335.01 1128.46 333.53 1146.61 328.38 1163.46 326.44 1173.96 327.82" stroke="#807b7c" stroke-width="4" stroke-linecap="round" stroke-linejoin="round" opacity="1" fill="none"></path><path d="M1023.55 611.53C1023.55 611.53 991.4 603.7 989.65 571.18 984.22 582.05 976.48 592.55 964.04 600.93 966.9 604.89 969.85 608.49 973.53 611.53 952.53 639.25 979.24 657.03 979.24 657.03V657.4H996.28C996.28 657.49 991.22 627.55 1023.55 611.53Z" fill="#39454a" opacity="0.2" stroke-width="4" stroke="none"></path><path d="M794.28 559.85L805.52 572.65C813.16 580.48 823.02 589.42 833.8 597.8 816.2 569.89 812.43 562.43 812.43 562.43 808.65 564.92 794.28 559.85 794.28 559.85Z" fill="#000000" opacity="0.2" stroke-width="4" stroke="none"></path><path d="M1031.93 949.21L1032.39 941.28C1031.1 929.95 1029.44 918.9 1027.42 908.4L1022.63 893.94 925.72 895.41 928.03 908.4C930.61 916.87 932.26 924.43 932.91 930.32L958.61 980.71 1031.93 949.21Z" fill="#a4633d" opacity="1" stroke-width="4" stroke="none"></path><path d="M1087.38 710.08C1080.56 680.24 1069.51 661.45 1069.51 661.45L1066.19 665.41C1066.19 665.41 938.34 679.69 899.1 726.3 867.14 764.25 912 856.63 927.84 908.4H1027.42C1018.85 863.63 1004.48 823.47 987.35 789.48H1010.19C1072.55 789.48 1096.78 751.17 1087.38 710.08Z" fill="#ffc930" opacity="1" stroke-width="4" stroke="none"></path><path d="M899.1 726.3C869.63 761.39 905.74 842.91 923.79 896.06 923.79 896.06 928.67 869.9 951.98 843.83 974.18 818.96 998.4 813.34 998.4 813.34 994.99 805.33 991.12 797.04 987.35 789.58L899.1 726.3Z" fill="#6e654b" opacity="0.2" stroke-width="4" stroke="none"></path><path d="M927.84 908.4H1027.42" stroke="#464131" stroke-width="4" stroke-linecap="round" stroke-linejoin="round" opacity="1" fill="none"></path><path d="M899.66 995.35C910.07 978.13 933 973.8 933.19 938.89 933.19 936.95 933.19 934.84 933 932.72 932.91 931.8 932.82 930.97 932.73 929.95H955.75C963.95 929.95 970.12 937.23 968.83 945.34L965.24 967.9C965.24 967.9 990.57 942.94 1032.39 941.1 1033.31 948.56 1033.96 956.21 1034.51 964.04 1034.69 966.89 1034.88 969.93 1035.06 972.79 1035.43 980.06 1035.8 987.62 1035.89 995.26V995.35L1035.06 997.93 899.75 995.91V995.35H899.66Z" fill="#3c2c5b" opacity="1" stroke-width="4" stroke="none"></path><path d="M899.66 995.45H1035.8C1035.89 1001.8 1035.8 1008.25 1035.61 1014.88H894.68C894.68 1009.63 895.51 1005.21 896.8 1001.43 897.63 999.22 898.55 997.29 899.66 995.45Z" fill="#61ccff" opacity="1" stroke-width="4" stroke="none"></path><path d="M930.05 957.4L945.62 963.94" stroke="#9865ff" stroke-width="4" stroke-linecap="round" stroke-linejoin="round" opacity="1" fill="none"></path><path d="M922.78 969.38L936.04 979.33" stroke="#9865ff" stroke-width="4" stroke-linecap="round" stroke-linejoin="round" opacity="1" fill="none"></path><path d="M965.24 968L959.9 993.51" stroke="#9865ff" stroke-width="4" stroke-linecap="round" stroke-linejoin="round" opacity="1" fill="none"></path><path d="M903.53 906.56L816.39 861.61 813.63 872.11C811.41 883.62 809.48 892.83 808.28 895.78L813.63 953.17H883.63L893.03 948.47C897.08 937.42 900.58 926.55 903.53 915.77V906.56Z" fill="#a4633d" opacity="1" stroke-width="4" stroke="none"></path><path d="M1117.41 692.03L1110.78 661.08 996.28 669.74 979.24 674.62C979.24 674.62 887.87 681.99 861.15 712.11 835.92 740.57 831.49 777.05 821.27 831.12 818.51 845.58 815.93 860.23 813.63 872.02L903.53 915.86C919.18 856.91 920.57 827.43 920.47 789.39L1038.1 789.76C1089.78 790.04 1128.37 742.42 1117.41 692.03Z" fill="#ffc930" opacity="1" stroke-width="4" stroke="none"></path><path d="M920.47 789.48H887.87C887.87 798.05 895.24 803.49 903.53 814.54 913.38 827.71 918.26 841.71 918.26 841.71 920.29 823.47 920.57 807.45 920.47 789.48Z" fill="#6e654b" opacity="0.2" stroke-width="4" stroke="none"></path><path d="M813.72 872.02L903.62 915.95" stroke="#464131" stroke-width="4" stroke-linecap="round" stroke-linejoin="round" opacity="1" fill="none"></path><path d="M750.44 936.68C767.39 925.9 789.86 932.16 805.61 901.12 806.53 899.37 807.36 897.53 808.28 895.5L808.37 895.32 824.77 903.24C833.24 907.29 836.01 917.89 830.67 925.62L818.88 942.48C818.88 942.48 853.88 930.51 893.21 948.56 890.72 955.28 888.05 962.1 885.2 968.92 884.09 971.68 882.89 974.35 881.7 977.21 878.84 983.84 875.71 990.66 872.39 997.47 872.3 997.66 870.37 1000.97 870.27 1001.16L749.98 937.14C750.07 936.95 750.16 936.86 750.44 936.68Z" fill="#3c2c5b" opacity="1" stroke-width="4" stroke="none"></path><path d="M745.65 940.45C747.03 939.17 748.41 938.06 749.88 937.14L872.02 998.12C869.26 1003.74 866.41 1009.26 863.37 1014.97L737.26 951.97C739.75 946.99 742.52 943.31 745.65 940.45Z" fill="#61ccff" opacity="1" stroke-width="4" stroke="none"></path><path d="M792.9 917.06L803.68 930.14" stroke="#9865ff" stroke-width="4" stroke-linecap="round" stroke-linejoin="round" opacity="1" fill="none"></path><path d="M780.37 923.6L787.56 938.43" stroke="#9865ff" stroke-width="4" stroke-linecap="round" stroke-linejoin="round" opacity="1" fill="none"></path><path d="M818.78 942.48L802.3 962.56" stroke="#9865ff" stroke-width="4" stroke-linecap="round" stroke-linejoin="round" opacity="1" fill="none"></path><path d="M914.21 869.34C919.92 838.21 920.66 817.12 920.47 790.68" stroke="#464131" stroke-width="4" stroke-linecap="round" stroke-linejoin="round" opacity="1" fill="none"></path><path d="M1113.17 656.84L979.24 657.4V674.62H1114L1113.17 656.84Z" fill="#39454a" opacity="1" stroke-width="4" stroke="none"></path><path d="M987.35 789.48H887.87" stroke="#464131" stroke-width="4" stroke-linecap="round" stroke-linejoin="round" opacity="1" fill="none"></path><path d="M1023.09 707.23H1074.95C1074.95 707.23 1076.14 749.69 1050.44 749.14 1024.74 748.59 1023.09 707.23 1023.09 707.23Z" fill="#6e654b" opacity="1" stroke-width="4" stroke="none"></path><path d="M1111.88 742.88C1116.86 732.01 1119.53 719.85 1119.25 707.32H1099.17C1099.17 707.23 1100.09 731.09 1111.88 742.88Z" fill="#6e654b" opacity="1" stroke-width="4" stroke="none"></path></g><g><path d="M953.55 926.93V907.9H1092.4V926.93H953.55Z" fill="#231f20" opacity="1" stroke-width="4" stroke="none"></path><path d="M953.55 926.93V907.9H975.14L966.02 926.93H953.55Z" fill="#000000" opacity="0.2" stroke-width="4" stroke="none"></path><path d="M1079.92 926.93L1070.81 907.9H1092.4V926.93H1079.92Z" fill="#000000" opacity="0.2" stroke-width="4" stroke="none"></path><path d="M926.3 1006.35C926.2 1006.73 926.2 1007.2 926.2 1007.58 926.2 1011.67 929.56 1015 933.69 1015 937.14 1015 940.31 1012.53 940.98 1009.2L987.52 796.62H961.8L926.3 1006.35Z" fill="#231f20" opacity="1" stroke-width="4" stroke="none"></path><path d="M1084.05 796.62H1058.33L1104.97 1009.2C1105.73 1012.62 1108.8 1015 1112.26 1015 1112.64 1015 1113.03 1015 1113.41 1014.91 1115.43 1014.62 1117.15 1013.58 1118.3 1011.96 1119.46 1010.34 1119.93 1008.34 1119.65 1006.44L1084.05 796.62Z" fill="#231f20" opacity="1" stroke-width="4" stroke="none"></path><path d="M963.24 907.9L959.12 926.93" stroke="#000000" stroke-width="4" stroke-linecap="round" stroke-linejoin="round" opacity="1" fill="none"></path><path d="M1082.51 907.9L1086.64 926.93" stroke="#000000" stroke-width="4" stroke-linecap="round" stroke-linejoin="round" opacity="1" fill="none"></path><path d="M961.9 796.62L954.8 838.28H978.5L987.61 796.62H961.9Z" fill="#000000" opacity="0.2" stroke-width="4" stroke="none"></path><path d="M1084.05 796.62H1058.33L1067.45 838.28H1091.15L1084.05 796.62Z" fill="#000000" opacity="0.2" stroke-width="4" stroke="none"></path><path d="M943.09 810.98H1102.95C1109.19 810.98 1114.18 806.04 1114.18 799.85 1114.18 793.67 1109.19 788.73 1102.95 788.73H943.09C936.85 788.73 931.86 793.67 931.86 799.85 931.86 806.04 936.85 810.98 943.09 810.98Z" fill="#3c2c5b" opacity="1" stroke-width="4" stroke="none"></path><path d="M959.4 810.98H984.45" stroke="#3c2c5b" stroke-width="4" stroke-linecap="round" stroke-linejoin="round" opacity="1" fill="none"></path><path d="M1061.5 810.98H1086.54" stroke="#3c2c5b" stroke-width="4" stroke-linecap="round" stroke-linejoin="round" opacity="1" fill="none"></path></g><g><path d="M584.47 678.17H532.85C532.85 678.17 532.75 678.17 532.75 678.07L523.33 599.99C523.33 599.99 523.33 599.89 523.43 599.89L556.21 611.11 593.9 599.89C593.9 599.89 594 599.89 594 599.99L584.47 678.17C584.57 678.17 584.57 678.17 584.47 678.17Z" fill="#61ccff" opacity="1" stroke-width="4" stroke="none"></path><path d="M558.21 617.93C533.55 617.93 523.93 601.09 523.33 600.09V599.99H593.9C593.9 599.99 594 599.99 593.9 600.09 593.3 601.09 582.77 617.93 558.21 617.93Z" fill="#2a4552" opacity="1" stroke-width="4" stroke="none"></path></g><g><path d="M335.31 860.49C330.73 843.43 305.77 838.33 295.5 871.27 286.56 900.01 273.93 904.22 268.17 932.65 262.71 959.83 278.44 999.12 318.76 996.32 361.23 993.36 335.31 860.49 335.31 860.49Z" stroke="#ffffff" stroke-width="4" stroke-linecap="round" stroke-linejoin="round" opacity="1" fill="none"></path><path d="M352.36 787.74L406.91 890.07 311.75 940.8 257.2 838.47 352.36 787.74Z" fill="#ffc930" opacity="1" stroke-width="4" stroke="none"></path><path d="M378.96 801.33H378.66C362.27 801.33 348.97 814.63 348.97 831.02V858.72H408.65V831.02C408.65 814.63 395.36 801.33 378.96 801.33Z" stroke="#ffffff" stroke-width="4" stroke-linecap="round" stroke-linejoin="round" opacity="1" fill="none"></path><path d="M378.89 829.18H378.22C335.68 829.18 301.26 863.67 301.26 906.14V997.8C301.26 1007.62 309.24 1015.6 319.06 1015.6H438.05C447.87 1015.6 455.85 1007.62 455.85 997.8V906.22C455.92 863.67 421.43 829.18 378.89 829.18 378.89 829.18 378.96 829.18 378.89 829.18Z" fill="#ff4f32" opacity="1" stroke-width="4" stroke="none"></path><path d="M409.39 923.72H347.86C337.89 923.72 329.77 931.85 329.77 941.82V980.59C329.77 990.56 337.89 998.69 347.86 998.69H409.39C419.36 998.69 427.48 990.56 427.48 980.59V941.82C427.48 931.85 419.36 923.72 409.39 923.72Z" fill="#8e3526" opacity="0.3" stroke-width="4" stroke="none"></path><path d="M409.14 927.83H347.86C339.38 927.33 337.39 932.75 329.73 943.83V972.47C329.77 982.44 337.89 990.56 347.86 990.56H409.39C419.36 990.56 427.48 982.44 427.48 972.47V943.49C421.59 929.4 418.75 928.32 409.14 927.33Z" fill="#d69e00" opacity="1" stroke-width="4" stroke="none"></path><path d="M409.39 915.6H347.86C337.89 915.6 329.77 923.72 329.77 933.69V943.44H427.48V933.69C427.48 923.72 419.36 915.6 409.39 915.6Z" fill="#ffc930" stroke="#272459" stroke-width="4" opacity="1"></path><path d="M427.48 943.44H329.7" stroke="#fcfcfc" stroke-width="4" stroke-linecap="round" stroke-linejoin="round" opacity="1" fill="none"></path><path d="M378.59 892.26C370.43 892.26 363.82 885.64 363.82 877.49 363.82 869.32 370.43 862.71 378.59 862.71 386.74 862.71 393.36 869.32 393.36 877.49 393.36 885.64 386.74 892.26 378.59 892.26Z" fill="#ffc930" opacity="1" stroke-width="4" stroke="none"></path></g><g><path d="M1300.09 962.44C1299.82 962.44 1299.65 962.44 1299.38 962.44 1292.25 962.08 1286.72 955.93 1287.08 948.71 1287.35 943.9 1290.2 939.71 1294.48 937.66 1311.32 929.64 1310.25 923.93 1307.13 906.82 1304.55 892.83 1300.98 873.66 1313.37 853.52 1315.78 849.69 1319.88 847.37 1324.42 847.37 1326.83 847.37 1329.15 848.08 1331.2 849.33 1337.35 853.08 1339.22 861.1 1335.48 867.25 1328.35 878.83 1330.31 889.62 1332.62 902.1 1335.92 920.01 1340.56 944.52 1305.62 961.19 1303.92 961.99 1302.05 962.44 1300.09 962.44Z" fill="#ffc930" opacity="1" stroke-width="4" stroke="none"></path><path d="M1316.94 939.71C1311.86 937.84 1307.04 935.61 1302.5 933.03 1300.45 934.54 1297.77 936.06 1294.48 937.66 1290.2 939.71 1287.35 943.99 1287.08 948.71 1286.72 955.84 1292.25 961.99 1299.38 962.44 1299.65 962.44 1299.82 962.44 1300.09 962.44 1302.05 962.44 1303.92 961.99 1305.71 961.19 1316.94 955.84 1324.16 949.69 1328.52 943.1 1324.6 942.3 1320.77 941.14 1316.94 939.71Z" fill="#6f5712" opacity="0.2" stroke-width="4" stroke="none"></path><path d="M1068.26 1016.1C1067.64 1014.4 1067.28 1012.62 1067.28 1010.84 1067.28 1003.08 1073.61 996.75 1081.36 996.75H1142.95L1181.46 1015.74 1181.37 1016.1H1068.26Z" fill="#ffc930" opacity="1" stroke-width="4" stroke="none"></path><path d="M1128.16 1016.1C1118.44 1016.1 1109.17 1011.37 1103.47 1003.53L1101.69 1001.03C1099.1 997.47 1098.83 992.65 1101.15 988.91L1113.45 968.32C1116.75 962.71 1122.1 958.7 1128.34 956.91L1135.56 954.86 1136.09 934.54C1136.09 933.47 1136.63 932.4 1137.34 931.69 1138.05 930.98 1139.03 930.62 1140.1 930.62 1141.17 930.62 1142.33 931.06 1143.04 931.87 1147.94 937.21 1155.7 945.5 1165.77 956.47 1167.91 958.78 1170.32 959.94 1173.17 959.94 1180.12 959.94 1188.86 953.26 1199.02 945.5 1214.53 933.65 1233.87 918.94 1257.22 918.94 1263.81 918.94 1270.5 920.19 1277.1 922.51 1292.78 928.21 1303.83 937.93 1309.72 951.39 1322.28 979.82 1308.02 1015.65 1307.85 1016.01L1307.76 1016.1H1128.16Z" fill="#ff4f32" opacity="1" stroke-width="4" stroke="none"></path><path d="M1104.45 1004.78C1104.09 1004.33 1103.83 1003.97 1103.47 1003.53L1101.69 1001.03C1099.1 997.47 1098.83 992.65 1101.15 988.91L1103.47 985.08C1103.47 985.08 1103.83 985.08 1104 985.08 1108.73 985.08 1112.47 987.48 1113.36 991.05 1114.34 994.97 1109.8 1002.19 1104.72 1004.86L1104.63 1004.95 1104.45 1004.78Z" fill="#ffa0dc" opacity="1" stroke-width="4" stroke="none"></path><path d="M1182.26 1015.92C1179.5 1008.79 1182.97 1000.68 1190.19 997.91 1191.8 997.29 1193.49 996.93 1195.27 996.93H1219.69C1216.58 973.49 1233.06 952.01 1256.51 948.89 1258.38 948.62 1260.25 948.53 1262.12 948.53H1263.28" stroke="#20110e" stroke-width="4" stroke-linecap="round" stroke-linejoin="round" opacity="1" fill="none"></path><path d="M1271.66 995.42C1268.54 995.42 1265.6 994.53 1263.1 992.83 1259.45 990.34 1257.13 986.24 1256.68 981.42 1256.24 976.61 1257.58 971.62 1260.52 967.43 1264.44 961.81 1270.59 958.34 1276.74 958.34 1279.86 958.34 1282.8 959.23 1285.3 960.92 1288.95 963.42 1291.27 967.52 1291.71 972.33 1292.16 977.15 1290.82 982.14 1287.88 986.33 1283.96 991.94 1277.72 995.42 1271.66 995.42Z" fill="#ffc930" opacity="1" stroke-width="4" stroke="none"></path><path d="M1236.1 945.68C1231.46 945.68 1227.18 944.52 1223.26 942.3 1219.87 940.33 1216.93 937.57 1214.79 934.27L1214.7 934.1 1214.88 934.01C1224.6 927.59 1239.57 918.94 1257.22 918.94 1261.05 918.94 1264.88 919.3 1268.63 920.1H1268.81L1268.72 920.28C1267.91 922.6 1266.85 924.83 1265.6 926.96 1259 938.55 1247.68 945.68 1236.1 945.68Z" fill="#ffc930" opacity="1" stroke-width="4" stroke="none"></path><path d="M1118.89 983.92C1120.58 986.06 1126.73 987.22 1130.12 986.06" stroke="#20110e" stroke-width="4" stroke-linecap="round" stroke-linejoin="round" opacity="1" fill="none"></path></g></svg>