<svg xmlns="http://www.w3.org/2000/svg" height="1200" width="1600" version="1.1" xmlns:xlink="http://www.w3.org/1999/xlink" xmlns:svgjs="http://svgjs.com/svgjs"><rect fill="#f3ebe9" width="1600" height="1200"></rect><g><path d="M1063.96 189.12C1117.62 228.51 1144.11 306.63 1193.7 383.38 1243.28 460.14 1316.64 535.54 1299.66 592.6 1282.68 649.65 1176.04 687.69 1110.15 759.01 1044.26 830.34 1019.13 934.26 955.28 993.36 891.43 1051.77 788.86 1064.68 722.29 1016.45 655.05 968.9 624.48 860.22 555.2 783.47 486.59 706.03 379.95 660.52 330.36 582.41 280.1 503.61 287.57 392.22 350.74 328.36 413.91 264.51 532.78 247.53 624.48 225.8 716.86 203.38 781.39 176.21 854.75 162.63 928.11 149.72 1009.62 150.4 1063.96 189.12Z" fill="#efdcd7" opacity="1" stroke-width="4" stroke="none"></path></g><g><path d="M467.23 310.29L1132.77 313.1C1155.25 313.1 1161.41 315.46 1161.41 337.94L1173.47 370.66V862.06C1173.47 884.54 1155.25 902.76 1132.77 902.76H467.23C444.75 902.76 426.53 884.54 426.53 862.06V370.66L437.5 337.94C437.5 315.46 444.75 310.29 467.23 310.29Z" fill="#ffffff" opacity="1" stroke-width="4" stroke="none"></path><path d="M467.23 297.24H1132.77C1155.25 297.24 1173.47 315.46 1173.47 337.94V370.66H426.53V337.94C426.53 315.46 444.75 297.24 467.23 297.24Z" fill="#d5d5d5" opacity="1" stroke-width="4" stroke="none"></path><path d="M483.91 347.55C490.92 347.55 496.6 341.86 496.6 334.86 496.6 327.85 490.92 322.17 483.91 322.17 476.91 322.17 471.22 327.85 471.22 334.86 471.22 341.86 476.91 347.55 483.91 347.55Z" fill="#ffffff" opacity="1" stroke-width="4" stroke="none"></path><path d="M525.16 347.55C532.16 347.55 537.85 341.86 537.85 334.86 537.85 327.85 532.16 322.17 525.16 322.17 518.15 322.17 512.47 327.85 512.47 334.86 512.47 341.86 518.15 347.55 525.16 347.55Z" fill="#ffffff" opacity="1" stroke-width="4" stroke="none"></path><path d="M566.4 347.55C573.41 347.55 579.09 341.86 579.09 334.86 579.09 327.85 573.41 322.17 566.4 322.17 559.39 322.17 553.71 327.85 553.71 334.86 553.71 341.86 559.39 347.55 566.4 347.55Z" fill="#ffffff" opacity="1" stroke-width="4" stroke="none"></path><path d="M706.27 334.58H893.82" stroke="#ffffff" stroke-width="4" stroke-linecap="round" stroke-linejoin="round" opacity="1" fill="none"></path></g><g><path d="M665.15 493.38H919.44C936.08 493.38 949.6 506.9 949.6 523.55V771.73C949.6 788.37 936.08 801.89 919.44 801.89H665.15C648.5 801.89 634.99 788.37 634.99 771.73V523.55C634.99 506.9 648.5 493.38 665.15 493.38Z" fill="#353535" opacity="1" stroke-width="4" stroke="none"></path><path d="M680.57 478.11H934.86C951.51 478.11 965.03 491.63 965.03 508.27V756.45C965.03 773.1 951.51 786.62 934.86 786.62H680.57C663.93 786.62 650.41 773.1 650.41 756.45V508.27C650.41 491.63 663.93 478.11 680.57 478.11Z" fill="#61ccff" opacity="1" stroke-width="4" stroke="none"></path><path d="M744.03 607.16C750.75 607.16 756.25 612.66 756.25 619.38V645.35C756.25 652.07 750.75 657.56 744.03 657.56 737.31 657.56 731.81 652.07 731.81 645.35V619.38C731.89 612.66 737.31 607.16 744.03 607.16Z" stroke="#ffffff" stroke-width="4" stroke-linecap="round" stroke-linejoin="round" opacity="1" fill="none"></path><path d="M786.49 607.16C793.21 607.16 798.71 612.66 798.71 619.38V645.35C798.71 652.07 793.21 657.56 786.49 657.56 779.77 657.56 774.27 652.07 774.27 645.35V619.38C774.35 612.66 779.77 607.16 786.49 607.16Z" stroke="#ffffff" stroke-width="4" stroke-linecap="round" stroke-linejoin="round" opacity="1" fill="none"></path><path d="M689.36 607.16H701.57V657.56" stroke="#ffffff" stroke-width="4" stroke-linecap="round" stroke-linejoin="round" opacity="1" fill="none"></path><path d="M689.36 657.56H713.79" stroke="#ffffff" stroke-width="4" stroke-linecap="round" stroke-linejoin="round" opacity="1" fill="none"></path><path d="M816.73 607.16H828.95V657.56" stroke="#ffffff" stroke-width="4" stroke-linecap="round" stroke-linejoin="round" opacity="1" fill="none"></path><path d="M816.73 657.56H841.17" stroke="#ffffff" stroke-width="4" stroke-linecap="round" stroke-linejoin="round" opacity="1" fill="none"></path><path d="M871.4 607.16C878.12 607.16 883.62 612.66 883.62 619.38V645.35C883.62 652.07 878.12 657.56 871.4 657.56 864.68 657.56 859.19 652.07 859.19 645.35V619.38C859.19 612.66 864.68 607.16 871.4 607.16Z" stroke="#ffffff" stroke-width="4" stroke-linecap="round" stroke-linejoin="round" opacity="1" fill="none"></path><path d="M901.64 607.16H913.86V657.56" stroke="#ffffff" stroke-width="4" stroke-linecap="round" stroke-linejoin="round" opacity="1" fill="none"></path><path d="M901.64 657.56H926.08" stroke="#ffffff" stroke-width="4" stroke-linecap="round" stroke-linejoin="round" opacity="1" fill="none"></path><path d="M701.57 522.02C708.29 522.02 713.79 527.52 713.79 534.24V560.2C713.79 566.92 708.29 572.42 701.57 572.42 694.85 572.42 689.36 566.92 689.36 560.2V534.24C689.36 527.52 694.85 522.02 701.57 522.02Z" stroke="#ffffff" stroke-width="4" stroke-linecap="round" stroke-linejoin="round" opacity="1" fill="none"></path><path d="M786.49 522.02C793.21 522.02 798.71 527.52 798.71 534.24V560.2C798.71 566.92 793.21 572.42 786.49 572.42 779.77 572.42 774.27 566.92 774.27 560.2V534.24C774.35 527.52 779.77 522.02 786.49 522.02Z" stroke="#ffffff" stroke-width="4" stroke-linecap="round" stroke-linejoin="round" opacity="1" fill="none"></path><path d="M913.86 522.02C920.58 522.02 926.08 527.52 926.08 534.24V560.2C926.08 566.92 920.58 572.42 913.86 572.42 907.14 572.42 901.64 566.92 901.64 560.2V534.24C901.64 527.52 907.14 522.02 913.86 522.02Z" stroke="#ffffff" stroke-width="4" stroke-linecap="round" stroke-linejoin="round" opacity="1" fill="none"></path><path d="M731.89 522.02H744.11V572.42" stroke="#ffffff" stroke-width="4" stroke-linecap="round" stroke-linejoin="round" opacity="1" fill="none"></path><path d="M731.89 572.42H756.33" stroke="#ffffff" stroke-width="4" stroke-linecap="round" stroke-linejoin="round" opacity="1" fill="none"></path><path d="M816.73 522.02H828.95V572.42" stroke="#ffffff" stroke-width="4" stroke-linecap="round" stroke-linejoin="round" opacity="1" fill="none"></path><path d="M816.73 572.42H841.17" stroke="#ffffff" stroke-width="4" stroke-linecap="round" stroke-linejoin="round" opacity="1" fill="none"></path><path d="M859.19 522.02H871.4V572.42" stroke="#ffffff" stroke-width="4" stroke-linecap="round" stroke-linejoin="round" opacity="1" fill="none"></path><path d="M859.19 572.42H883.62" stroke="#ffffff" stroke-width="4" stroke-linecap="round" stroke-linejoin="round" opacity="1" fill="none"></path><path d="M874 692.31C880.72 692.31 886.22 697.81 886.22 704.53V730.49C886.22 737.21 880.72 742.71 874 742.71 867.28 742.71 861.78 737.21 861.78 730.49V704.53C861.78 697.81 867.28 692.31 874 692.31Z" stroke="#ffffff" stroke-width="4" stroke-linecap="round" stroke-linejoin="round" opacity="1" fill="none"></path><path d="M786.34 692.31C793.06 692.31 798.55 697.81 798.55 704.53V730.49C798.55 737.21 793.06 742.71 786.34 742.71 779.62 742.71 774.12 737.21 774.12 730.49V704.53C774.12 697.81 779.62 692.31 786.34 692.31Z" stroke="#ffffff" stroke-width="4" stroke-linecap="round" stroke-linejoin="round" opacity="1" fill="none"></path><path d="M830.17 692.31C836.89 692.31 842.39 697.81 842.39 704.53V730.49C842.39 737.21 836.89 742.71 830.17 742.71 823.45 742.71 817.95 737.21 817.95 730.49V704.53C817.95 697.81 823.45 692.31 830.17 692.31Z" stroke="#ffffff" stroke-width="4" stroke-linecap="round" stroke-linejoin="round" opacity="1" fill="none"></path><path d="M901.64 692.31H913.86V742.71" stroke="#ffffff" stroke-width="4" stroke-linecap="round" stroke-linejoin="round" opacity="1" fill="none"></path><path d="M901.64 742.71H926.08" stroke="#ffffff" stroke-width="4" stroke-linecap="round" stroke-linejoin="round" opacity="1" fill="none"></path><path d="M731.89 692.31H744.11V742.71" stroke="#ffffff" stroke-width="4" stroke-linecap="round" stroke-linejoin="round" opacity="1" fill="none"></path><path d="M731.89 742.71H756.33" stroke="#ffffff" stroke-width="4" stroke-linecap="round" stroke-linejoin="round" opacity="1" fill="none"></path><path d="M689.36 692.31H701.57V742.71" stroke="#ffffff" stroke-width="4" stroke-linecap="round" stroke-linejoin="round" opacity="1" fill="none"></path><path d="M689.36 742.71H713.79" stroke="#ffffff" stroke-width="4" stroke-linecap="round" stroke-linejoin="round" opacity="1" fill="none"></path></g><g><path d="M217.7 694.33L256.48 709.59 228.03 680.99 256.1 659.11 219.61 666.84 226.5 626.75 206.1 661.76 186.61 641.21 195.14 670.07 158.22 672.72 194.13 684.59 176.5 711.86 203.24 693.8 211.19 729.34 217.7 694.33Z" fill="#ffffff" opacity="1" stroke-width="4" stroke="none"></path></g><g><path d="M383.03 1079.49L337.24 1052.78 388.23 1058.67 388.04 1013.38 409 1056 443.64 1017.59 424.71 1065.46 460.59 1068.78 425.06 1082.96 451.42 1121.91 411.28 1095.4 397.95 1134.45 394.87 1093.51 353.15 1113.54 383.03 1079.49Z" fill="#ffffff" opacity="1" stroke-width="4" stroke="none"></path></g><g><path d="M314.99 885.39L269.45 745.21C267.76 739.95 268.23 735.16 270.86 731.5 273.3 728.12 277.34 726.33 282.13 726.33H485.98C496.4 726.33 507.57 734.78 510.95 745.21L556.49 885.39H314.99Z" fill="#ffc930" opacity="1" stroke-width="4" stroke="none"></path><path d="M457.06 902.48C458.56 902.39 459.97 902.2 461.37 901.73 464.94 900.6 467.85 898.07 469.54 894.78 471.23 891.49 471.52 887.64 470.39 884.08H707.85C708.32 885.48 708.6 886.99 708.6 888.49 708.6 896.19 702.31 902.48 694.52 902.48 694.52 902.48 457.06 902.48 457.06 902.48Z" fill="#ffc930" opacity="1" stroke-width="4" stroke="none"></path><path d="M333.86 902.48C325.87 902.48 318.74 897.32 316.3 889.71L314.51 884.08H470.47C470.94 885.48 471.22 886.89 471.22 888.4 471.22 896.19 464.93 902.48 457.23 902.48H333.86Z" fill="#ffc930" opacity="1" stroke-width="4" stroke="none"></path><path d="M332.83 884.17L289.73 751.68H496.21L539.4 884.17H332.83Z" fill="#ff4f32" opacity="1" stroke-width="4" stroke="none"></path><path d="M398.46 857.88C391.42 857.88 383.82 852.15 381.47 845.11L366.17 797.88C365.04 794.31 365.32 791.03 367.1 788.58 368.79 786.33 371.52 785.02 374.8 785.02H438.37C445.41 785.02 453.02 790.74 455.37 797.79L470.67 845.02C471.8 848.58 471.52 851.87 469.73 854.31 468.04 856.56 465.32 857.88 462.03 857.88H398.46Z" fill="#231f20" opacity="1" stroke-width="4" stroke="none"></path><path d="M314.24 884.08H555.83" stroke="#2a2821" stroke-width="4" stroke-linecap="round" stroke-linejoin="round" opacity="1" fill="none"></path><path d="M454.98 795.53L429.91 822.29C425.03 827.46 415.83 827.46 407.56 822.29L366.16 796.19" stroke="#ff4f32" stroke-width="4" stroke-linecap="round" opacity="1" fill="none"></path><path d="M430.85 821.54L470.38 846.52" stroke="#ff4f32" stroke-width="4" stroke-linecap="round" opacity="1" fill="none"></path><path d="M382.12 847.08L405.78 821.82" stroke="#ff4f32" stroke-width="4" stroke-linecap="round" opacity="1" fill="none"></path><path d="M457.43 803.42C449.54 803.42 441 796.94 438.37 789.05 437.15 785.3 437.43 781.82 439.31 779.38 441 777.13 443.72 775.82 447.2 775.82 455.08 775.82 463.63 782.29 466.26 790.27 467.48 794.03 467.2 797.5 465.32 799.95 463.63 802.11 460.81 803.42 457.43 803.42Z" fill="#61ccff" opacity="1" stroke-width="4" stroke="none"></path><path d="M400.16 743.89C396.96 743.89 393.49 741.26 392.46 738.07 391.99 736.57 392.08 735.16 392.83 734.13 393.49 733.19 394.62 732.72 396.02 732.72 399.22 732.72 402.69 735.35 403.72 738.54 404.19 740.04 404.1 741.45 403.35 742.48 402.6 743.33 401.47 743.89 400.16 743.89Z" fill="#2a2821" opacity="1" stroke-width="4" stroke="none"></path><path d="M457.43 805.39C448.7 805.39 439.22 798.26 436.4 789.52 434.99 785.11 435.37 781.07 437.62 777.97 439.68 775.16 443.07 773.56 447.2 773.56 455.93 773.56 465.41 780.7 468.23 789.43 469.64 793.84 469.26 797.88 467.01 800.98 464.85 803.89 461.47 805.39 457.43 805.39ZM447.1 777.88C444.38 777.88 442.22 778.82 441 780.51 439.59 782.48 439.4 785.2 440.44 788.3 442.69 795.35 450.58 801.26 457.52 801.26 457.71 801.26 457.81 801.26 457.99 801.26 460.15 801.26 462.22 800.32 463.63 798.63 465.04 796.66 465.22 793.94 464.19 790.84 461.84 783.7 454.05 777.88 447.1 777.88Z" fill="#ff4f32" opacity="1" stroke-width="4" stroke="none"></path></g><g><path d="M1134.2 438.6C1193.33 446.57 1247.71 405.09 1255.68 345.96 1263.64 286.84 1222.16 232.45 1163.04 224.49 1103.91 216.53 1049.53 258 1041.56 317.13 1033.6 376.25 1075.08 430.64 1134.2 438.6Z" fill="#ff4f32" opacity="1" stroke-width="4" stroke="none"></path><path d="M1171.61 283.13L1164.09 338.98C1162.88 347.94 1154.7 354.19 1145.73 352.98 1136.77 351.77 1130.53 343.59 1131.74 334.62L1139.26 278.78C1140.46 269.81 1148.65 263.57 1157.61 264.78 1166.59 265.88 1172.82 274.17 1171.61 283.13Z" fill="#ffffff" opacity="1" stroke-width="4" stroke="none"></path><path d="M1139.63 398.31C1148.56 399.52 1156.78 393.25 1157.98 384.32 1159.19 375.38 1152.92 367.16 1143.99 365.96 1135.05 364.76 1126.83 371.02 1125.63 379.96 1124.43 388.89 1130.69 397.11 1139.63 398.31Z" fill="#ffffff" opacity="1" stroke-width="4" stroke="none"></path></g><g><path d="M1401.4 649.19C1369.75 649.19 1355.3 623.25 1355.17 622.99 1355.23 622.92 1359.74 619.02 1368.14 614.18 1374.79 610.35 1386.08 604.91 1399.45 600.88 1401.6 600.21 1413.9 604.1 1413.9 604.1 1413.9 604.1 1420.55 595.91 1427.54 594.97 1438.02 593.55 1447.36 593.08 1453.95 593.08 1464.16 593.08 1470.27 594.02 1470.34 594.02 1470.27 594.16 1465.03 606.52 1454.95 619.42 1445.61 631.32 1430.16 646.03 1409.46 648.72 1406.77 649.06 1404.02 649.19 1401.4 649.19Z" fill="#ffffff" opacity="1" stroke-width="4" stroke="none"></path><path d="M1406.5 641.53C1406.24 641.53 1405.97 641.53 1405.7 641.47 1398.58 640.12 1395.82 622.25 1399.45 600.88 1401.33 600.34 1403.55 599.6 1405.5 599.13 1412.55 597.32 1419.88 595.97 1427.54 594.97 1427.27 598.06 1426.73 601.35 1426.26 603.77 1422.43 624.93 1413.76 641.53 1406.5 641.53Z" fill="#000000" opacity="1" stroke-width="4" stroke="none"></path><path d="M1300.74 630.92C1291.87 630.92 1283 628.56 1274.4 623.99 1255.98 614.12 1246.71 594.9 1242.21 580.52 1237.3 564.93 1236.77 551.49 1236.77 551.35 1236.97 551.42 1253.77 555.05 1276.21 567.28 1282.39 570.64 1284.34 582.74 1284.34 582.74 1284.34 582.74 1299.39 581.93 1301.01 583.21 1324.12 600.88 1334.07 618.95 1334.13 619.16 1334.13 619.36 1320.56 630.92 1300.74 630.92 1300.8 630.92 1300.8 630.92 1300.74 630.92Z" fill="#ffffff" opacity="1" stroke-width="4" stroke="none"></path><path d="M1281.39 618.62C1281.12 618.62 1280.78 618.62 1280.51 618.55 1273.19 617.21 1270.57 598.12 1274.6 576.02 1275.07 573.19 1275.4 570.3 1276.21 567.28 1282.93 570.91 1289.78 575.01 1295.97 579.38 1297.58 580.52 1299.53 582.06 1301.07 583.27 1297.04 603.7 1288.37 618.62 1281.39 618.62Z" fill="#000000" opacity="1" stroke-width="4" stroke="none"></path></g></svg>